<svg xmlns="http://www.w3.org/2000/svg" enable-background="new 0 0 130 130" viewBox="0 0 130 130"><circle cx="65" cy="65" r="64" fill="#FAD553"/><path fill="#FAB941" d="M120.01719 57.24603h8.49902c-.07202-.59717-.13867-1.1958-.22729-1.78809h-8.27172c-.49146 0-.8938.40234-.8938.89404S119.52573 57.24603 120.01719 57.24603zM120.09152 48.26105l-5.80801-.00001c-.49168 0-.89395-.40228-.89395-.89395v0c0-.49167.40228-.89394.89395-.89394l5.80801.00001c.49168 0 .89395.40228.89395.89395l0 0C120.98547 47.85877 120.58319 48.26105 120.09152 48.26105zM23.62565 71.47256c-.00006.49997-.40003.89984-.89004.89983-.50002-.00001-.90012-.39989-.90006-.89986.00006-.48995.40027-.89007.90029-.89006C23.22585 70.58247 23.62572 70.9826 23.62565 71.47256zM25.73557 72.37236l6.5913.00021c.49431.00002.89503-.4007.89503-.895l0 0c0-.4943-.40071-.895-.895-.895h-6.59084c-.49023 0-.90039.40015-.90039.89014C24.83567 71.96245 25.24583 72.37236 25.73557 72.37236zM108.60825 103.23039l7.71973.00001c.43701-.58594.85425-1.18701 1.27148-1.78809l-8.99121-.00001c-.49121 0-.89355.40234-.89355.89404S108.11703 103.23039 108.60825 103.23039zM102.79008 101.44232h2.36105c.49168 0 .89395.40228.89395.89395l0 0c0 .49167-.40228.89394-.89395.89394h-2.36105c-.49168 0-.89395-.40228-.89395-.89394l0 0C101.89613 101.8446 102.29841 101.44232 102.79008 101.44232zM11.57628 82.86514l-8.02954-.00049c.17383.59912.35083 1.19629.54175 1.78809l7.48779.00049c.4917 0 .89404-.4021.89404-.8938v-.00024C12.47032 83.26749 12.06798 82.86514 11.57628 82.86514z"/><circle cx="14.321" cy="83.759" r=".894" fill="#FAB941"/><circle cx="111.284" cy="47.367" r=".894" fill="#FAB941"/><path fill="#FAB941" d="M11.68346 43.30704c.49414 0 .89502-.40039.89502-.89502 0-.49414-.40088-.89502-.89502-.89502L5.4652 41.51724c-.23462.59424-.47119 1.18726-.68823 1.78979L11.68346 43.30704zM39.01748 26.20393l-14.88587-.00001c-.49167 0-.89395-.40228-.89395-.89395v0c0-.49167.40228-.89395.89395-.89395l14.88587.00001c.49167 0 .89395.40228.89395.89395v0C39.91142 25.80165 39.50915 26.20393 39.01748 26.20393zM91.06758 16.22895l-5.80801-.00001c-.49167 0-.89394-.40228-.89394-.89395v0c0-.49167.40228-.89395.89394-.89395l5.80801.00001c.49168 0 .89395.40228.89395.89395v0C91.96153 15.82668 91.55926 16.22895 91.06758 16.22895zM82.25957 16.22895l-3.10794-.00001c-.49168 0-.89395-.40228-.89395-.89395v0c0-.49167.40228-.89395.89395-.89395l3.10794.00001c.49168 0 .89395.40228.89395.89395v0C83.15352 15.82667 82.75124 16.22895 82.25957 16.22895zM10.34488 66.42663c-.00006.49997-.40003.89984-.89004.89983-.50002-.00001-.90012-.39989-.90006-.89986.00006-.48996.40027-.89008.90029-.89006C9.94508 65.53654 10.34494 65.93668 10.34488 66.42663zM12.4548 67.32643l12.59129.00021c.49431.00002.89503-.4007.89503-.895l0 0c0-.4943-.40071-.895-.895-.895H12.45528c-.49023 0-.90039.40015-.90039.89014C11.55489 66.91652 11.96505 67.32643 12.4548 67.32643zM83.44291 115.17052c-.00007.49997-.40003.89983-.89004.89983-.50002-.00001-.90012-.39989-.90005-.89986.00006-.48996.40027-.89007.90028-.89006C83.04311 114.28043 83.44297 114.68056 83.44291 115.17052zM85.55283 116.07032l6.59129.00022c.49431.00002.89503-.4007.89503-.895v-.00001c0-.49429-.4007-.895-.895-.895h-6.59084c-.49023 0-.90039.40015-.90039.89014C84.65292 115.66041 85.06308 116.07032 85.55283 116.07032zM56.59405 91.12294c-.00006.49997-.40003.89983-.89004.89983-.50002-.00001-.90012-.39989-.90005-.89986.00006-.48996.40027-.89007.90029-.89006C56.19425 90.23286 56.59412 90.63298 56.59405 91.12294zM58.70397 92.02274l6.59129.00022c.49431.00002.89503-.4007.89503-.895l0 0c0-.4943-.4007-.895-.895-.895l-6.59084-.00001c-.49023 0-.90039.40015-.90039.89014C57.80407 91.61282 58.21423 92.02274 58.70397 92.02274zM43.31327 86.07701c-.00006.49997-.40003.89984-.89003.89983-.50002-.00001-.90012-.39989-.90006-.89986.00006-.48995.40027-.89007.90029-.89006C42.91348 85.18693 43.31334 85.58705 43.31327 86.07701zM45.42319 86.97681l12.5913.00021c.4943.00002.89503-.4007.89503-.895l0 0c0-.4943-.40071-.895-.895-.895H45.42368c-.49023 0-.90039.40015-.90039.89014C44.52329 86.5669 44.93345 86.97681 45.42319 86.97681zM34.01423 113.21673c-.00006.49997-.40003.89983-.89003.89983-.50002-.00001-.90012-.39989-.90006-.89986.00006-.48996.40027-.89007.90029-.89006C33.61443 112.32664 34.0143 112.72677 34.01423 113.21673zM36.12415 114.11652l12.5913.00022c.49431.00002.89503-.4007.89503-.895v-.00001c0-.49429-.40071-.895-.895-.895H36.12465c-.49023 0-.90039.40015-.90039.89014C35.22425 113.70661 35.63441 114.11652 36.12415 114.11652zM51.60814 11.19966c-.00006.49997-.40003.89984-.89003.89983-.50002-.00001-.90012-.3999-.90006-.89986.00006-.48996.40028-.89007.90029-.89006C51.20834 10.30957 51.6082 10.7097 51.60814 11.19966zM53.71806 12.09946l12.59129.00022c.49431.00002.89503-.4007.89503-.895v0c0-.4943-.40071-.895-.895-.895l-12.59084 0c-.49023 0-.90039.40015-.90039.89014C52.81816 11.68955 53.22832 12.09946 53.71806 12.09946z"/><path fill="#FAB941" d="M118.61385,70.72926l-3.11304-5.69995c-1.70752-3.12622-2.60132-6.6316-2.59888-10.19385l0.00024-0.04907
		c0-18.8186-15.24023-34.08423-34.05884-34.08423c-8.36157,0-16.01343,3.02283-21.93896,8.02881H41.33382
		c-3.33398,0-6.4209,1.66113-8.25781,4.44336l-5.76074,8.72656c-3.05133,4.62242-8.17059,2.61445-13.06836,3.09521v3
		c4.1049-0.49629,11.39389,1.88579,15.57226-4.44287l5.76074-8.72656c1.2793-1.93848,3.43066-3.0957,5.75391-3.0957h12.44043
		c-2.03369,2.21521-3.77295,4.70263-5.16846,7.39795h-3.51611c-3.4375,0-6.5752,1.74121-8.39453,4.6582
		c-2.01695,3.54251-3.64725,4.96201-4.08179,8.21582H14.2469v3h18.42383c0.23413,1.35669,0.74585,2.6748,1.54688,3.85791
		c1.59967,1.74737,3.71129,8.21485,10.80859,8.21485h2.06885c0.97021,2.50183,2.22241,4.8634,3.72681,7.03906
		c-7.58211-0.57986-12.84906,1.68736-16.04565-3.02002c-4.35544-5.23362-6.13051-12.81543-13.94531-12.81543H14.2469v3h6.58398
		c8.90069,0,8.63917,15.83545,19.64746,15.83545h12.62378c5.83179,7.48352,9.07983,16.66272,9.07983,26.16895v4.4856
		c0,3.01135,2.44116,5.45239,5.45239,5.45239h23.9519c2.87915,0,5.21289-2.33386,5.21289-5.21289v-3.17236
		c0-3.39722,2.47632-6.28735,5.8335-6.80811c4.18628-0.64929,7.27466-4.25342,7.27466-8.48999V80.8993
		c0-1.3866,0.90405-2.61133,2.229-3.01978l4.08374-1.25867C118.70174,75.85596,119.85872,73.00831,118.61385,70.72926z
		 M36.56233,49.66895l2.67773-4.29395c1.26855-2.03271,3.45508-3.24609,5.84961-3.24609h2.14355
		c-1.23755,3.09412-2.03345,6.4104-2.31323,9.87402h-9.25732C35.82039,51.19019,36.10847,50.39661,36.56233,49.66895z
		 M39.31624,61.04493l-2.61426-3.86523c-0.4563-0.67419-0.7644-1.41382-0.95703-2.17676h9.05713
		c0.01978,3.14258,0.46875,6.18433,1.2876,9.07276C45.75046,64.00565,41.76189,64.65854,39.31624,61.04493z"/><g><path fill="#EDEDED" d="M114.53736,74.93816l-4.08362,1.25868c-1.32516,0.40845-2.22919,1.63311-2.22919,3.01978v8.63904
			c0,4.23653-3.08819,7.84068-7.27465,8.49006h-0.00002c-3.35706,0.52074-5.83343,3.41085-5.83343,6.80805v3.1724
			c0,2.87897-2.33388,5.21285-5.21286,5.21285H65.95165c-3.01124,0-5.45234-2.44109-5.45234-5.45233v-4.48566
			c0-9.84777-3.477-19.35031-9.71049-26.97411c-4.79774-5.86783-7.67413-13.36725-7.67413-21.52319
			c0-18.81871,15.23985-34.08427,34.04586-34.08427c18.8187,0,34.05887,15.26557,34.05887,34.08427l-0.00004,0.0491
			c-0.00249,3.56212,0.89116,7.06763,2.59866,10.19383l3.11323,5.69986C118.17606,71.32555,117.01897,74.17326,114.53736,74.93816z"/><path fill="#DDDCE0" d="M114.54109,74.93702l-4.09009,1.26001c-1.32007,0.40991-2.22998,1.62988-2.22998,3.02002v8.63989
			c0,4.23999-3.08008,7.84009-7.27002,8.48999c-1.67993,0.26001-3.13989,1.11011-4.16992,2.32007
			c-1.04004,1.21997-1.66016,2.79004-1.66016,4.48999v3.16992c0,2.88013-2.33984,5.20996-5.21997,5.20996H65.951
			c-2.34009,0-4.34009-1.47998-5.09985-3.55994c0.58984,0.2301,1.22998,0.34998,1.88989,0.34998h23.94995
			c2.87988,0,5.21997-2.32996,5.21997-5.20996v-3.16992c0-1.70007,0.62012-3.27002,1.65015-4.47998
			c1.04004-1.22009,2.5-2.07007,4.17993-2.33008c4.18994-0.65002,7.28003-4.25,7.28003-8.48999v-8.64001
			c0-1.39001,0.8999-2.60999,2.21997-3.02002l4.09009-1.26001c2.47998-0.75989,3.63989-3.60999,2.38989-5.89001l-3.11011-5.69995
			c-1.70996-3.12-2.59985-6.63-2.59985-10.18994v-0.05005c0-8.59009-3.17993-16.44995-8.42017-22.43994
			c7.13013,6.25,11.63013,15.41992,11.63013,25.6499v0.05005c0,3.56006,0.88989,7.06006,2.59985,10.18994l3.11011,5.69995
			C118.18098,71.32691,117.02107,74.17701,114.54109,74.93702z"/><path fill="#FFF" d="M97.79695 32.19043c-.25293 0-.50586-.09521-.7002-.28613-2.43848-2.39209-5.25098-4.30811-8.3584-5.69385-.50488-.22461-.73145-.81592-.50586-1.32031.22461-.50439.81641-.73242 1.32031-.50586 3.32617 1.48291 6.33496 3.53271 8.94434 6.09229.39453.38672.40039 1.02002.01367 1.41406C98.31551 32.09034 98.05574 32.19043 97.79695 32.19043zM83.38191 24.41602c-.06934 0-.14063-.00732-.21094-.02246-1.96289-.42139-3.98438-.63525-6.00977-.63525-.55273 0-1-.44775-1-1s.44727-1 1-1c2.16602 0 4.3291.229 6.42969.68018.54004.11572.88379.64746.76758 1.1875C84.25789 24.09522 83.84285 24.41602 83.38191 24.41602zM57.97273 30.87061c-.28125 0-.56055-.11816-.75781-.34814-.36035-.41846-.3125-1.0498.10547-1.41016 4.49512-3.86523 9.96484-6.31689 15.81836-7.09033.54883-.07275 1.0498.31299 1.12207.86035s-.3125 1.0498-.86035 1.12207c-5.4668.72266-10.57617 3.01318-14.77539 6.62451C58.43562 30.79102 58.20418 30.87061 57.97273 30.87061zM47.69344 53.25928c-.55273 0-1-.44775-1-1 0-7.44092 2.70801-14.6084 7.62402-20.18213.36621-.41455 1-.45215 1.41113-.08838.41504.36523.4541.99756.08887 1.41162-4.59375 5.20801-7.12402 11.90527-7.12402 18.85889C48.69344 52.81153 48.24617 53.25928 47.69344 53.25928zM54.33699 71.88819c-.29004 0-.57715-.125-.77539-.36719-3.06055-3.74365-5.20703-8.21289-6.20703-12.9253-.11426-.54053.23047-1.07129.77148-1.18555.54102-.11523 1.07129.23096 1.18555.77051.93359 4.40137 2.93848 8.57666 5.79883 12.07471.34961.42725.28613 1.05713-.1416 1.40674C54.78328 71.81446 54.55965 71.88819 54.33699 71.88819z"/><path fill="#2F4867" d="M19.87972,46.31348h-7.31543v-3h7.31543c2.32324,0,4.47363-1.15723,5.75293-3.09521l5.76074-8.72656
					c1.83692-2.78223,4.92383-4.44336,8.25781-4.44336h22.43945c1.30664,0,2.58203,0.25391,3.78906,0.75439l8.35938,3.46582
					l-1.14844,2.77148l-8.35938-3.46582c-0.84179-0.34912-1.72949-0.52588-2.64062-0.52588H39.6512
					c-2.32324,0-4.47461,1.15723-5.75391,3.0957l-5.76074,8.72656C26.29964,44.65284,23.2137,46.31348,19.87972,46.31348z"/><path fill="#2F4867" d="M87.06136,65.39307H43.34359c-3.28809,0-6.35156-1.62598-8.19434-4.34961l-2.61426-3.86523
					c-2.18946-3.23389-2.26758-7.46582-0.2002-10.77979l2.67773-4.29395c1.81934-2.91699,4.95703-4.6582,8.39453-4.6582h9.73926v3
					h-9.73926c-2.39453,0-4.58105,1.21338-5.84961,3.24609l-2.67773,4.29395c-1.44043,2.30908-1.38574,5.25732,0.13965,7.51074
					l2.61426,3.86523c1.28418,1.89746,3.41895,3.03076,5.70996,3.03076h43.71777V65.39307z"/><path fill="#2F4867" d="M61.42855,64.76173l-2.44531-1.73731l6.34961-8.93994c1.85352-2.60791,4.86914-4.16455,8.06641-4.16455
					h4.52539v3h-4.52539c-2.22852,0-4.3291,1.08496-5.62109,2.90234L61.42855,64.76173z"/><rect width="38.021" height="3" x="12.564" y="50.32" fill="#2F4867"/><path fill="#2F4867" d="M77.92464,75.43214h-39.1289c-3.28125,0-6.34082-1.62012-8.18457-4.33447l-5.75977-8.48047
					c-1.28516-1.89111-3.41699-3.02051-5.70313-3.02051h-6.58398v-3h6.58398c3.28027,0,6.33984,1.62061,8.18457,4.33447
					l5.76074,8.48096c1.28418,1.89111,3.41602,3.02002,5.70215,3.02002h39.1289V75.43214z"/><path fill="#2F4867" d="M77.92464,87.58302h-4.05176c-3.49512,0-6.76563-1.87256-8.53418-4.88672l-4.69433-8.00049
					l2.58789-1.51855l4.69433,8.00049c1.23242,2.10059,3.51074,3.40527,5.94629,3.40527h4.05176V87.58302z"/><path fill="#F34B50" d="M84.2253,51.41968c0,2.57154-2.08685,4.65839-4.65839,4.65839s-4.65057-2.08685-4.65057-4.65839
				s2.07903-4.65839,4.65057-4.65839S84.2253,48.84814,84.2253,51.41968z"/><circle cx="79.571" cy="51.42" r="2.632" fill="#EDEDED"/><g><path fill="#3B9A4F" d="M92.85921,64.00648c0,2.57154-2.08685,4.65839-4.65839,4.65839s-4.65057-2.08685-4.65057-4.65839
				s2.07903-4.65839,4.65057-4.65839S92.85921,61.43494,92.85921,64.00648z"/><circle cx="88.205" cy="64.006" r="2.632" fill="#EDEDED"/></g><g><path fill="#168DE2" d="M82.57912,74.30882c0,2.57154-2.08685,4.65839-4.65839,4.65839s-4.65057-2.08685-4.65057-4.65839
				s2.07903-4.65839,4.65057-4.65839S82.57912,71.73728,82.57912,74.30882z"/><circle cx="77.925" cy="74.309" r="2.632" fill="#EDEDED"/></g><g><path fill="#F34B50" d="M84.2253,85.9705c0,2.57154-2.08685,4.65839-4.65839,4.65839s-4.65057-2.08685-4.65057-4.65839
				s2.07903-4.65839,4.65057-4.65839S84.2253,83.39896,84.2253,85.9705z"/><circle cx="79.571" cy="85.971" r="2.632" fill="#EDEDED"/></g><g><path fill="#F34B50" d="M58.51122,39.13806c0,2.57154-2.08685,4.65839-4.65839,4.65839s-4.65057-2.08685-4.65057-4.65839
				s2.07903-4.65839,4.65057-4.65839S58.51122,36.56652,58.51122,39.13806z"/><circle cx="53.857" cy="39.138" r="2.632" fill="#EDEDED"/></g><g><path fill="#168DE2" d="M57.34817,51.82032c0,2.57154-2.08685,4.65839-4.65839,4.65839s-4.65057-2.08685-4.65057-4.65839
				s2.07903-4.65839,4.65057-4.65839S57.34817,49.24878,57.34817,51.82032z"/><circle cx="52.694" cy="51.82" r="2.632" fill="#EDEDED"/></g><g><path fill="#3B9A4F" d="M78.89357,33.33399c0,2.57154-2.08685,4.65839-4.65839,4.65839s-4.65057-2.08685-4.65057-4.65839
				s2.07903-4.65839,4.65057-4.65839S78.89357,30.76245,78.89357,33.33399z"/><circle cx="74.239" cy="33.334" r="2.632" fill="#EDEDED"/></g></g></svg>