<svg xmlns="http://www.w3.org/2000/svg" viewBox="0 0 60 60"><circle cx="6" cy="6" r="5" fill="#4fc0e8"/><circle cx="6" cy="38" r="5" fill="#4fc0e8"/><circle cx="6" cy="22" r="5" fill="#4fc0e8"/><circle cx="6" cy="54" r="5" fill="#4fc0e8"/><circle cx="30" cy="30" r="5" fill="#4fc0e8"/><circle cx="30" cy="14" r="5" fill="#4fc0e8"/><circle cx="30" cy="46" r="5" fill="#4fc0e8"/><circle cx="54" cy="22" r="5" fill="#4fc0e8"/><circle cx="54" cy="38" r="5" fill="#4fc0e8"/><g><path fill="#66d4f1" d="M5 7A1 1 0 0 1 4 6 2 2 0 0 1 6 4 1 1 0 0 1 6 6 1 1 0 0 1 5 7zM5 39a1 1 0 0 1-1-1 2 2 0 0 1 2-2 1 1 0 0 1 0 2A1 1 0 0 1 5 39zM5 23a1 1 0 0 1-1-1 2 2 0 0 1 2-2 1 1 0 0 1 0 2A1 1 0 0 1 5 23zM5 55a1 1 0 0 1-1-1 2 2 0 0 1 2-2 1 1 0 0 1 0 2A1 1 0 0 1 5 55zM29 31a1 1 0 0 1-1-1 2 2 0 0 1 2-2 1 1 0 0 1 0 2A1 1 0 0 1 29 31zM29 15a1 1 0 0 1-1-1 2 2 0 0 1 2-2 1 1 0 0 1 0 2A1 1 0 0 1 29 15zM29 47a1 1 0 0 1-1-1 2 2 0 0 1 2-2 1 1 0 0 1 0 2A1 1 0 0 1 29 47zM53 23a1 1 0 0 1-1-1 2 2 0 0 1 2-2 1 1 0 0 1 0 2A1 1 0 0 1 53 23zM53 39a1 1 0 0 1-1-1 2 2 0 0 1 2-2 1 1 0 0 1 0 2A1 1 0 0 1 53 39z"/></g><g data-name="Outer Lines"><path fill="#3aadd9" d="M25.67 11.51a4.915 4.915 0 0 0-.63 1.89c-.03-.01-.07-.02-.11-.03L10.43 8.53c-.03-.01-.07-.03-.1-.04a4.915 4.915 0 0 0 .63-1.89c.04.01.08.02.11.03l14.5 4.84C25.6 11.48 25.64 11.5 25.67 11.51zM49.67 19.51a4.915 4.915 0 0 0-.63 1.89c-.03-.01-.07-.02-.11-.03l-14.5-4.84c-.03-.01-.07-.03-.1-.04a4.915 4.915 0 0 0 .63-1.89c.04.01.08.02.11.03l14.5 4.84C49.6 19.48 49.64 19.5 49.67 19.51zM49.67 40.49c-.03.01-.07.03-.1.04l-14.5 4.84c-.04.01-.08.02-.11.03a4.915 4.915 0 0 0-.63-1.89c.03-.01.07-.03.1-.04l14.5-4.84c.03-.01.07-.02.11-.03A4.915 4.915 0 0 0 49.67 40.49zM25.67 48.49c-.03.01-.07.03-.1.04l-14.5 4.84c-.04.01-.08.02-.11.03a4.915 4.915 0 0 0-.63-1.89c.03-.01.07-.03.1-.04l14.5-4.84c.03-.01.07-.02.11-.03A4.915 4.915 0 0 0 25.67 48.49zM25.67 32.49c-.03.01-.07.03-.1.04l-14.5 4.84c-.04.01-.08.02-.11.03a4.915 4.915 0 0 0-.63-1.89c.03-.01.07-.03.1-.04l14.5-4.84c.03-.01.07-.02.11-.03A4.915 4.915 0 0 0 25.67 32.49zM25.67 27.51a4.915 4.915 0 0 0-.63 1.89c-.03-.01-.07-.02-.11-.03l-14.5-4.84c-.03-.01-.07-.03-.1-.04a4.915 4.915 0 0 0 .63-1.89c.04.01.08.02.11.03l14.5 4.84C25.6 27.48 25.64 27.5 25.67 27.51zM51.17 33.75a.5.5 0 0 1 .07.08 5.363 5.363 0 0 0-1.41 1.4c-.03-.01-.05-.04-.08-.06L46 31.41l-2.15 2.15 5.72 1.91c.03.01.07.03.1.04a4.915 4.915 0 0 0-.63 1.89c-.03-.01-.07-.02-.11-.03l-6.66-2.23-8.02 8.03c-.03.02-.05.05-.08.06a5.363 5.363 0 0 0-1.41-1.4.5.5 0 0 1 .07-.08l7.32-7.31-5.72-1.91c-.03-.01-.07-.03-.1-.04a4.915 4.915 0 0 0 .63-1.89c.04.01.08.02.11.03l6.66 2.23L44.59 30l-2.86-2.86-6.66 2.23c-.04.01-.08.02-.11.03a4.915 4.915 0 0 0-.63-1.89c.03-.01.07-.03.1-.04l5.72-1.91-7.32-7.31a.5.5 0 0 1-.07-.08 4.983 4.983 0 0 0 1.41-1.41.5.5 0 0 1 .08.07l8.02 8.03 6.66-2.23c.03-.01.07-.02.11-.03a4.915 4.915 0 0 0 .63 1.89c-.03.01-.07.03-.1.04l-5.72 1.91L46 28.59l3.75-3.76a.5.5 0 0 1 .08-.07 4.983 4.983 0 0 0 1.41 1.41.5.5 0 0 1-.07.08L47.41 30zM27.24 25.83a5.363 5.363 0 0 0-1.41 1.4c-.01-.01-.01-.01-.02-.01s-.01-.01-.02-.02-.03-.02-.04-.03l-8.02-8.03-6.66 2.23c-.04.01-.08.02-.11.03a4.915 4.915 0 0 0-.63-1.89c.03-.01.07-.03.1-.04l5.72-1.91L8.83 10.25a.5.5 0 0 1-.07-.08 4.983 4.983 0 0 0 1.41-1.41.5.5 0 0 1 .08.07l8.02 8.03 6.66-2.23c.03-.01.07-.02.11-.03a4.915 4.915 0 0 0 .63 1.89c-.03.01-.07.03-.1.04l-5.72 1.91 7.32 7.31A.5.5 0 0 1 27.24 25.83zM27.17 34.25l-7.32 7.31 5.72 1.91c.03.01.07.03.1.04a4.915 4.915 0 0 0-.63 1.89c-.03-.01-.07-.02-.11-.03l-6.66-2.23-8.02 8.03c-.03.02-.05.05-.08.06a5.363 5.363 0 0 0-1.41-1.4.5.5 0 0 1 .07-.08l7.32-7.31-5.72-1.91c-.03-.01-.07-.03-.1-.04a4.915 4.915 0 0 0 .63-1.89c.04.01.08.02.11.03l6.66 2.23 8.02-8.03a.5.5 0 0 1 .08-.07 4.983 4.983 0 0 0 1.41 1.41A.5.5 0 0 1 27.17 34.25z"/></g></svg>