<svg xmlns="http://www.w3.org/2000/svg" id="Layer_1" enable-background="new 0 0 140 140" viewBox="0 0 140 140"><circle cx="70" cy="70" r="64" fill="#23a8d5"/><path d="M98.7444992,35.6322021l-3.1500244-3.1599731l-2.1500244-2.1500244
	c-0.4399414-0.4299927-1.1400146-0.4299927-1.5800781,0l-61.539917,61.5400391
	c-0.4300537,0.4399414-0.4300537,1.1499634,0,1.5799561l5.2999268,5.2999878l10.9300537,10.9300537l24.3060303,24.3060303
	c34.6616211-0.4588623,62.6613846-28.460022,63.1179276-63.1221924l-24.3039627-24.303894L98.7444992,35.6322021z" opacity=".1"/><path fill="#268272" d="M95.5901413,35.6286392c0.8678894,0.8678932,2.2801208,0.8757439,3.1558685,0l10.9272156,10.9272308
		c0.43573,0.4357338,0.43573,1.1422005,0,1.5779343l-61.5394783,61.5393982
		c-0.4357376,0.43573-1.1422005,0.43573-1.5779343-0.0000076L35.6285934,98.7459717
		c0.8678932-0.867897,0.867897-2.2879791,0.0000038-3.1558685c-0.8678436-0.8678513-2.2879753-0.867897-3.1558685-0.0000076
		l-2.1459675-2.1459656c-0.4357338-0.4357376-0.4357338-1.1421967,0.0000019-1.5779343l61.5394783-61.5393944
		c0.4357376-0.4357357,1.1421967-0.4357338,1.5779343,0l2.1459656,2.1459694
		C94.7144012,33.3485107,94.7222977,34.7607918,95.5901413,35.6286392z"/><path fill="#314d5c" d="M43.6019402,106.7193222l2.9538727,2.9538727c0.4357338,0.4357376,1.1421967,0.4357376,1.5779343,0.0000076
		l61.5394783-61.5393982c0.43573-0.4357338,0.43573-1.1422005,0-1.5779343l-2.9538727-2.9538727L43.6019402,106.7193222z"/><path fill="#2a414e" d="M49.6407204 79.9685669l5.9645844 5.9645996c.4418182.4418182.4339218 1.1440125 0 1.5779343l-3.8343735 3.8343658c-.4418182.4418182-1.1361122.4418182-1.5779343-.0000076l-5.9645844-5.964592c-.4418182-.4418182-.4418182-1.136116 0-1.5779343l3.8343735-3.8343658C48.4967079 79.5346451 49.1988983 79.5267487 49.6407204 79.9685669zM85.3809433 44.2283936l5.9645844 5.964592c.4418259.4418221.4418182 1.136116 0 1.5779343l-3.8343658 3.8343658c-.4339294.4339218-1.136116.4418182-1.5779343 0l-5.964592-5.964592c-.4418182-.4418221-.4339218-1.1440125 0-1.5779343l3.8343735-3.8343658C84.2448273 43.7865715 84.9391251 43.7865715 85.3809433 44.2283936zM56.788765 72.8205338l5.9645844 5.964592c.4418221.4418182.4339218 1.1440125 0 1.5779343l-3.8343697 3.8343658c-.4418221.4418182-1.136116.4418182-1.5779343 0l-5.9645882-5.964592c-.4418182-.4418182-.4418182-1.136116 0-1.5779343l3.8343735-3.8343658C55.6447525 72.3866119 56.3469467 72.3787155 56.788765 72.8205338zM92.5289917 37.0803566l5.9645844 5.964592c.4418182.4418221.4418182 1.136116 0 1.5779343l-3.8343735 3.8343697c-.4339218.4339218-1.136116.4418182-1.5779343-.0000038l-5.9645844-5.964592c-.4418182-.4418182-.4339218-1.1440125 0-1.5779343l3.8343735-3.8343658C91.3928757 36.6385384 92.0871735 36.6385384 92.5289917 37.0803566zM42.4926758 87.1166077l5.9645844 5.964592c.4418182.4418182.4339218 1.1440125 0 1.5779343l-3.8343735 3.8343658c-.4418182.4418182-1.1361122.4418182-1.5779343 0l-5.9645844-5.964592c-.4418182-.4418259-.4418182-1.136116 0-1.5779343l3.8343735-3.8343658C41.3486633 86.6826859 42.0508537 86.6747894 42.4926758 87.1166077zM63.9368095 65.6725006l5.9645882 5.964592c.4418182.4418182.4339218 1.1440125 0 1.5779343l-3.8343735 3.8343658c-.4339218.4339218-1.136116.4418182-1.5779343 0l-5.9645882-5.964592c-.4418182-.4418259-.4339218-1.1440125.0000038-1.5779343l3.8343697-3.8343658C62.7927971 65.2385788 63.4949913 65.2306824 63.9368095 65.6725006zM71.0848541 58.5244637l5.9645844 5.9645958c.4418182.4418182.4339218 1.1440125 0 1.5779343l-3.8343735 3.8343658c-.4339218.4339218-1.1361084.4418182-1.5779343 0l-5.9645844-5.9645958c-.4418182-.4418221-.4339218-1.1440125 0-1.5779343l3.8343735-3.8343658C69.9408417 58.0905418 70.6430359 58.0826454 71.0848541 58.5244637zM78.2329025 51.3764267l5.9645844 5.9645958c.4418182.4418182.4418182 1.1361122 0 1.5779343l-3.8343735 3.8343658c-.4339218.4339218-1.136116.4418182-1.5779343-.0000038l-5.9645844-5.964592c-.4418182-.4418182-.4339218-1.1440125 0-1.5779343l3.8343735-3.8343658C77.0967865 50.9346085 77.7910767 50.9346085 78.2329025 51.3764267z"/><g><rect width="1.758" height="5.293" x="49.05" y="101.488" fill="#f0c854" transform="rotate(-45 49.93 104.135)"/><rect width="1.758" height="5.293" x="52.062" y="98.477" fill="#f0c854" transform="rotate(-45 52.94 101.123)"/><rect width="1.758" height="5.293" x="55.073" y="95.465" fill="#f0c854" transform="rotate(-45 55.952 98.112)"/><rect width="1.758" height="5.293" x="58.084" y="92.454" fill="#f0c854" transform="rotate(-45 58.964 95.1)"/><rect width="1.758" height="5.293" x="61.096" y="89.443" fill="#f0c854" transform="rotate(-45 61.975 92.09)"/><rect width="1.758" height="5.293" x="64.107" y="86.431" fill="#f0c854" transform="rotate(-45 64.986 89.078)"/><rect width="1.758" height="5.293" x="67.119" y="83.42" fill="#f0c854" transform="rotate(-45 67.998 86.066)"/><rect width="1.758" height="5.293" x="70.13" y="80.408" fill="#f0c854" transform="rotate(-45 71.01 83.055)"/><rect width="1.758" height="5.293" x="73.142" y="77.397" fill="#f0c854" transform="rotate(-45 74.02 80.043)"/><rect width="1.758" height="5.293" x="76.153" y="74.385" fill="#f0c854" transform="rotate(-45 77.032 77.032)"/><rect width="1.758" height="5.293" x="79.164" y="71.374" fill="#f0c854" transform="rotate(-45 80.043 74.02)"/><rect width="1.758" height="5.293" x="82.176" y="68.363" fill="#f0c854" transform="rotate(-45 83.055 71.01)"/><rect width="1.758" height="5.293" x="85.187" y="65.351" fill="#f0c854" transform="rotate(-45 86.066 67.998)"/><rect width="1.758" height="5.293" x="88.199" y="62.34" fill="#f0c854" transform="rotate(-45 89.078 64.986)"/><rect width="1.758" height="5.293" x="91.21" y="59.328" fill="#f0c854" transform="rotate(-45 92.09 61.975)"/><rect width="1.758" height="5.293" x="94.221" y="56.317" fill="#f0c854" transform="rotate(-45 95.1 58.964)"/><rect width="1.758" height="5.293" x="97.233" y="53.306" fill="#f0c854" transform="rotate(-45 98.112 55.952)"/><rect width="1.758" height="5.293" x="100.244" y="50.294" fill="#f0c854" transform="rotate(-45 101.123 52.94)"/><rect width="1.758" height="5.293" x="103.256" y="47.283" fill="#f0c854" transform="rotate(-45 104.135 49.93)"/></g></svg>