<?xml version="1.0" encoding="UTF-8"?>
<!DOCTYPE svg PUBLIC "-//W3C//DTD SVG 1.1//EN" "http://www.w3.org/Graphics/SVG/1.1/DTD/svg11.dtd">
<svg xmlns="http://www.w3.org/2000/svg" xmlns:xlink="http://www.w3.org/1999/xlink" version="1.1" id="Layer_1" x="0px" y="0px" viewBox="0 0 128 128" enable-background="new 0 0 128 128" xml:space="preserve">
<g>
	<circle fill="#FF876C" cx="64" cy="64" r="63.5"/>
	<g>
		<polygon fill="#EFF2F4" points="78.6,25.3 40.4,25.3 40.4,59.7 87.6,59.7 87.6,34.3   "/>
		<polygon fill="#01B0C1" points="78.6,34.3 87.6,34.3 78.6,25.3   "/>
		<g>
			<rect x="48.7" y="31.8" fill="#01B0C1" width="25.6" height="1.7"/>
			<rect x="48.7" y="38.4" fill="#01B0C1" width="25.6" height="1.7"/>
			<rect x="48.7" y="45" fill="#01B0C1" width="25.6" height="1.7"/>
			<rect x="48.7" y="51.5" fill="#01B0C1" width="25.6" height="1.7"/>
		</g>
		<polygon fill="#474F5A" points="65.7,69.2 65.7,59.7 62.3,59.7 62.3,69.2 30.7,69.2 30.7,84.1 34,84.1 34,72.5 62.3,72.5     62.3,84.1 65.7,84.1 65.7,72.5 94,72.5 94,84.1 97.3,84.1 97.3,69.2   "/>
		<rect x="53" y="80.8" fill="#EFF2F4" width="22" height="22"/>
		<g>
			<rect x="84.9" y="80.8" fill="#EFF2F4" width="22" height="22"/>
			<rect x="21.2" y="80.8" fill="#EFF2F4" width="22" height="22"/>
		</g>
	</g>
</g>

	<metadata>
		<rdf:RDF xmlns:rdf="http://www.w3.org/1999/02/22-rdf-syntax-ns#" xmlns:rdfs="http://www.w3.org/2000/01/rdf-schema#" xmlns:dc="http://purl.org/dc/elements/1.1/">
			<rdf:Description about="https://iconscout.com/legal#licenses" dc:title="26 flowchart algorithm workflow structure data work" dc:description="26 flowchart algorithm workflow structure data work" dc:publisher="Iconscout" dc:date="2017-05-03" dc:format="image/svg+xml" dc:language="en">
				<dc:creator>
					<rdf:Bag>
						<rdf:li>Vectors Market</rdf:li>
					</rdf:Bag>
				</dc:creator>
			</rdf:Description>
		</rdf:RDF>
    </metadata></svg>
