<svg xmlns="http://www.w3.org/2000/svg" enable-background="new 0 0 50 50" viewBox="0 0 50 50"><g enable-background="new"><path fill="#272E3A" d="M19.29164,40.30966l0.04222,1.07898c0.00342,1.2064,0.79627,2.74196,2.38037,3.66254
										c3.18821,1.85279,8.37517,1.85283,11.58426,0.00005c1.61508-0.93246,2.42159-2.15637,2.41813-3.37837l-0.04222-1.40993
										c0.00346,1.222-0.80305,2.44591-2.41813,3.37837c-3.20909,1.85277-8.39605,1.85273-11.58426-0.00005
										C20.08791,42.72066,19.29506,41.51606,19.29164,40.30966z"/><path fill="#4C5671" d="M21.70978,36.93121c3.20968-1.85312,8.39543-1.85312,11.58426,0.00005
									c3.18821,1.8528,3.17191,4.85694-0.03777,6.71005c-3.2091,1.85276-8.39605,1.85271-11.58426-0.00005
									C18.48318,41.78811,18.50068,38.78397,21.70978,36.93121z"/></g><g enable-background="new"><path fill="#272E3A" d="M42.07972,1.7405c0.79298-0.45783,1.43335-0.0856,1.43593,0.82554l0.06958,24.54299
							c0.00256,0.90392-0.6336,2.01315-1.42658,2.47098L8.85839,48.80547c-0.78654,0.45411-1.43333,0.08559-1.43589-0.81833
							L7.35292,23.44415c-0.00258-0.91113,0.64-2.02407,1.42654-2.47818L42.07972,1.7405z"/><polygon fill="#FFF" points="42.084 3.048 42.154 25.821 8.854 45.046 8.784 22.273"/><path fill="#4C5671" d="M6.41488,22.89718l0.07069,24.54749c0,0.44424,0.16154,0.76768,0.41398,0.90869l0.93704,0.54597
							c-0.25244-0.15136-0.41398-0.46445-0.41398-0.90869L7.35192,23.44315c0-0.90869,0.63616-2.01953,1.42381-2.47363
							l33.3056-19.22555c0.39376-0.23223,0.75733-0.25244,1.00977-0.10058l-0.9371-0.54647
							c-0.26255-0.15137-0.61594-0.13115-1.01987,0.10108L7.83862,20.42355C7.05103,20.87765,6.40477,21.98849,6.41488,22.89718z"/></g><path fill="#4C5671" d="M26.97562,35.38563c-0.48574,0.28044-0.88479,0.96547-0.88319,1.52984
					c0.00158,0.55805,0.4032,0.78081,0.88894,0.50037c0.48574-0.28044,0.87945-0.96239,0.87787-1.52044
					C27.85765,35.33102,27.46136,35.10518,26.97562,35.38563z"/><g><polygon fill="#ED5D71" points="37.961 17.431 37.964 18.707 34.972 20.435 34.968 19.159"/><g enable-background="new"><polygon fill="#96D696" points="37.61 15.12 37.614 16.396 32.066 19.6 32.062 18.323"/><polygon fill="#ED5D71" points="33.854 14.782 33.858 16.052 28.498 19.146 28.495 17.876"/><polygon fill="#96D696" points="30.946 13.947 30.95 15.224 28.491 16.643 28.488 15.367"/></g><polygon fill="#FFDD94" points="38.845 9.387 38.849 10.663 34.665 13.079 34.661 11.803"/><polygon fill="#7BB1FF" points="37.041 12.942 37.044 14.212 35.767 14.95 35.763 13.68"/><polygon fill="#FFDD94" points="31.059 18.902 31.063 20.179 28.506 21.655 28.502 20.379"/><polygon fill="#ED5D71" points="31.586 26.138 31.589 27.409 28.527 29.177 28.523 27.906"/><polygon fill="#96D696" points="33.374 22.592 33.378 23.869 28.52 26.674 28.516 25.397"/><polygon fill="#7BB1FF" points="32.154 20.784 32.158 22.06 28.513 24.164 28.509 22.888"/><polygon fill="#FFDD94" points="36.156 20.986 36.16 22.262 34.381 23.29 34.377 22.013"/><polygon fill="#7BB1FF" points="39.781 21.407 39.785 22.677 36.21 24.741 36.207 23.471"/></g><g><polygon fill="#4C5671" points="19.175 25.787 19.177 26.466 15.818 28.405 15.816 27.726"/><path fill="#4C5671" d="M20.34629 26.55598c1.01436-.16862 2.31263-.02139 2.42352 1.78371.437-.13397.76934.12415.77088.66522.00042.14768-.10198.32834-.23042.40249s-.23438.01377-.23479-.1339c-.00095-.3345-.23574-.46822-.52685-.30015-.28826.16643-.52438.57203-.52343.90653.00042.14768-.10198.32834-.23042.40249-.12843.07415-.23152.01212-.23194-.13555-.0015-.5279.31404-1.15686.73893-1.5271-.09836-1.41813-1.09657-1.60386-1.95388-1.49651L20.34629 26.55598zM14.6525 29.8433l.00161.56722c-.85511.88132-1.84901 2.2172-1.93902 3.74407.4256-.1208.74367.14236.74516.67026.00042.14768-.10198.32834-.23041.40249s-.23152.01213-.23194-.13555c-.00095-.3345-.23859-.46658-.52685-.30015-.29111.16808-.52438.57204-.52343.90653.00042.14768-.10484.32999-.23327.40414-.12843.07415-.23152.01212-.23194-.13555-.00153-.54107.32826-1.18147.76459-1.55172C12.34731 32.488 13.6405 30.8446 14.6525 29.8433zM19.02038 35.81614c.09398-.05426.18492-.09197.27125-.11437.341-.0887.60932.06345.70152.40354.03468.13093-.06193.33783-.19607.41528l-1.53832.88815c-.13414.07745-.23158-.01083-.19776-.1781.0881-.44846.35806-.91727.69692-1.22162C18.84177 35.93369 18.92979 35.86843 19.02038 35.81614z"/><path fill="#4C5671" d="M19.28646 33.87876l.00517 1.82301c-.08633.0224-.17727.06011-.27125.11437-.09058.0523-.1786.11755-.26245.19287l-.00517-1.82212L19.28646 33.87876zM16.28402 35.61222l.00517 1.82212c-.08541.0224-.17532.05988-.2684.11361-.09058.0523-.17858.11754-.26245.19287l-.00517-1.82212L16.28402 35.61222z"/><path fill="#7BB1FF" d="M19.87606,26.06208c0.25683-0.14828,0.46874-0.02757,0.46958,0.2708l0.0181,6.38519
					c0.00084,0.29516-0.2097,0.65982-0.46653,0.8081l-0.61078,0.35263l-0.53371,0.30814l-2.46874,1.42533l-0.53084,0.30648
					l-0.61361,0.35427c-0.25687,0.1483-0.46874,0.02752-0.46957-0.26764l-0.01586-5.59485l-0.00161-0.56719l-0.00063-0.22315
					c-0.00085-0.29837,0.20965-0.66296,0.46652-0.81126L19.87606,26.06208z"/><path fill="#ED5D71" d="M20.34564,26.3329c-0.00083-0.29834-0.21275-0.419-0.46959-0.27085l-4.75766,2.74666
					c-0.25685,0.14866-0.46737,0.51319-0.46654,0.81153l0.00064,0.22299l0.00159,0.56715l0.00337,1.18165l5.69379-3.28734
					L20.34564,26.3329z"/><path fill="#FFF" d="M18.81949 24.45148c.19408-.11205.35156-.02226.35218.19747.00063.22294-.15583.49398-.3499.60603l-2.6571 1.53408c-.19407.11205-.35156.02226-.35219-.20068-.00062-.21974.15584-.49078.34991-.60283L18.81949 24.45148zM16.01092 23.98379c.27399-.15819.49733-.03086.49823.28727.00089.31475-.221.69913-.49498.85732-.27399.15819-.49733.03086-.49822-.28389C15.51505 24.52636 15.73694 24.14198 16.01092 23.98379zM18.95914 22.28164c.27399-.15819.49732-.03086.49823.28727.00089.31475-.22099.69913-.49498.85732-.27399.15819-.49733.03086-.49822-.28389C18.46326 22.82421 18.68515 22.43983 18.95914 22.28164z"/><path fill="#4C5671" d="M17.6214,20.04772l0.00145,0.00694l0.36563,1.82913l-1.00816,0.58206l0.35462-2.24572l0.00128-0.00776
					c0.04824-0.01406,0.09247-0.02103,0.14469-0.05118C17.52911,20.13336,17.57324,20.08932,17.6214,20.04772z"/><path fill="#ED5D71" d="M17.47791,18.76436c0.39823-0.22992,0.72025-0.0395,0.72154,0.41811
						c0.00106,0.3735-0.21194,0.81565-0.50679,1.09092l-0.00214-0.01027c-0.07127,0.06156-0.13657,0.12673-0.20789,0.16791
						c-0.07726,0.04461-0.14272,0.05494-0.2141,0.07574l-0.0019,0.01149c-0.29713,0.06577-0.51043-0.12952-0.51148-0.50191
						C16.75385,19.55873,17.07374,18.99771,17.47791,18.76436z"/><path fill="#7BB1FF" d="M19.86117,20.8115c0.25683-0.14828,0.46873-0.03073,0.46958,0.26764l0.00991,3.49605
					c0.00084,0.29498-0.2097,0.65963-0.46653,0.80791l-0.69924,0.40371l-3.3592,1.93943l-0.69924,0.40371
					c-0.25687,0.1483-0.46874,0.02752-0.46957-0.26746l-0.00991-3.49605c-0.00085-0.29837,0.20966-0.6598,0.46653-0.8081
					L19.86117,20.8115z M18.82173,25.25502c0.19408-0.11205,0.35057-0.3831,0.34994-0.60602
					c-0.00062-0.21976-0.15814-0.30952-0.35221-0.19747l-2.65708,1.53407c-0.19408,0.11205-0.35053,0.38308-0.3499,0.60283
					c0.00063,0.22292,0.1581,0.3127,0.35218,0.20065L18.82173,25.25502 M18.96234,23.42626
					c0.27401-0.1582,0.49591-0.54259,0.49502-0.85731c-0.0009-0.31812-0.22425-0.44544-0.49826-0.28724
					c-0.27397,0.15818-0.49587,0.54257-0.49497,0.86068C18.46502,23.45711,18.68837,23.58443,18.96234,23.42626 M15.51593,24.84453
					c0.00089,0.31472,0.22424,0.44205,0.49821,0.28387c0.27397-0.15818,0.49587-0.54257,0.49498-0.85729
					c-0.0009-0.31811-0.22425-0.44544-0.49822-0.28726C15.73693,24.14202,15.51503,24.52641,15.51593,24.84453"/><g><path fill="#4C5671" d="M16.02079,37.54795c0.09308-0.05374,0.18299-0.09122,0.2684-0.11361
					c0.34146-0.08968,0.60909,0.06358,0.70153,0.40443c0.03468,0.13093-0.05908,0.33619-0.19607,0.41528l-1.53832,0.88815
					c-0.13129,0.0758-0.23159-0.01083-0.19776-0.1781c0.09039-0.44978,0.36083-0.91887,0.69977-1.22327
					C15.84221,37.66549,15.93021,37.60025,16.02079,37.54795z"/></g><g><polygon fill="#4C5671" points="19.013 30.761 19.017 32.589 16.003 34.329 15.999 32.501"/></g></g></svg>