<?xml version="1.0" encoding="UTF-8"?>
<svg xmlns="http://www.w3.org/2000/svg" xmlns:xlink="http://www.w3.org/1999/xlink" id="Layer_1" style="enable-background:new 0 0 128 128;" version="1.1" viewBox="0 0 128 128" xml:space="preserve"><style type="text/css">
	.st0{fill:#F5876E;}
	.st1{fill:#F5F6F7;}
	.st2{fill:#D4DDDD;}
	.st3{fill:#F0C040;}
	.st4{fill:#F4DA80;}
	.st5{fill:#F0F2F4;}
	.st6{fill:#06B0C1;}
	.st7{fill:#FFFFFF;}
	.st8{fill:#86CA8E;}
	.st9{fill:#484F5B;}
	.st10{fill:#31373E;}
	.st11{fill:#F8C149;}
	.st12{fill:#2CC0D5;}
	.st13{fill:#AFBABA;}
	.st14{fill:#FDFEFF;}
	.st15{fill:#A1A1A3;}
	.st16{fill:#E8E8E8;}
	.st17{fill:#C2E1B5;}
	.st18{fill:#FCFDFB;}
	.st19{fill:#9E9E9E;}
	.st20{fill:#97D9EF;}
	.st21{fill:#FAFBFC;}
	.st22{fill:#F2E9F3;}
	.st23{fill:#C9C9C9;}
	.st24{fill:#E2E2E2;}
	.st25{fill:#6F798F;}
	.st26{fill:#C4C4C4;}
	.st27{fill:#B8BABC;}
	.st28{fill:#F4FBFD;}
	.st29{fill:#FAFAFA;}
	.st30{fill:#737574;}
	.st31{fill:#FEFBEE;}
	.st32{fill:#F6F9FB;}
	.st33{fill:#CED9E1;}
	.st34{fill:#7A7D7B;}
	.st35{fill:#DDE5EC;}
	.st36{fill:#F4F4F4;}
	.st37{fill:#E8EAE9;}
	.st38{fill:#EFEFEF;}
	.st39{fill:none;}
	.st40{fill:#E8CA78;}
	.st41{fill:#F9F9FA;}
	.st42{fill:#E77961;}
	.st43{fill:#FBF7F5;}
	.st44{fill:#F7F1EE;}
	.st45{fill:#DFE1E0;}
	.st46{fill:#52C1AD;}
</style><g><circle class="st8" cx="64" cy="64" r="63.5" style="fill: #86CA8E;"/><g><polygon class="st9" points="64.5,62.5 57.8,62.5 57.8,65.5 64.5,65.5 64.5,93.9 77,93.9 77,90.9 67.4,90.9 67.4,65.5 77.8,65.5     77.8,62.5 67.4,62.5 67.4,37.1 76.2,37.1 76.2,34.1 64.5,34.1   " style="fill: #484F5B;"/><path class="st1" d="M102.3,23.2H76.1c-1,0-1.8,0.8-1.8,1.8v17c0,1,0.8,1.8,1.8,1.8h26.2c1,0,1.8-0.8,1.8-1.8V25    C104.1,24,103.3,23.2,102.3,23.2z" style="fill: #F5F6F7;"/><path class="st1" d="M102.3,51.7H76.1c-1,0-1.8,0.8-1.8,1.8v17c0,1,0.8,1.8,1.8,1.8h26.2c1,0,1.8-0.8,1.8-1.8v-17    C104.1,52.5,103.3,51.7,102.3,51.7z" style="fill: #F5F6F7;"/><path class="st1" d="M56.8,46.7H18.7c-1,0-1.8,0.8-1.8,1.8v25.3c0,1,0.8,1.8,1.8,1.8h38.2c1,0,1.8-0.8,1.8-1.8V48.5    C58.6,47.5,57.8,46.7,56.8,46.7z" style="fill: #F5F6F7;"/><path class="st1" d="M102.3,80.2H76.1c-1,0-1.8,0.8-1.8,1.8v17c0,1,0.8,1.8,1.8,1.8h26.2c1,0,1.8-0.8,1.8-1.8V82    C104.1,81,103.3,80.2,102.3,80.2z" style="fill: #F5F6F7;"/><rect class="st27" height="2.4" width="10.7" x="83.9" y="43.8" style="fill: #B8BABC;"/><rect class="st1" height="1.7" width="13.7" x="82.4" y="46.2" style="fill: #F5F6F7;"/><circle class="st0" cx="89.2" cy="42" r="0.5" style="fill: #F5876E;"/><rect class="st27" height="2.4" width="10.7" x="83.9" y="72.3" style="fill: #B8BABC;"/><rect class="st1" height="1.7" width="13.7" x="82.4" y="74.7" style="fill: #F5F6F7;"/><circle class="st0" cx="89.2" cy="70.5" r="0.5" style="fill: #F5876E;"/><rect class="st27" height="3.3" width="15" x="30.3" y="75.6" style="fill: #B8BABC;"/><rect class="st1" height="2.3" width="19.2" x="28.1" y="78.9" style="fill: #F5F6F7;"/><circle class="st0" cx="37.8" cy="73.1" r="0.7" style="fill: #F5876E;"/><path class="st6" d="M101.9,24.3H76.6c-0.6,0-1.1,0.5-1.1,1.1v13.9c0,0.6,0.5,1.1,1.1,1.1h25.3c0.6,0,1.1-0.5,1.1-1.1V25.4    C103,24.8,102.5,24.3,101.9,24.3z" style="fill: #06B0C1;"/><path class="st6" d="M101.9,52.8H76.6c-0.6,0-1.1,0.5-1.1,1.1v13.9c0,0.6,0.5,1.1,1.1,1.1h25.3c0.6,0,1.1-0.5,1.1-1.1V53.9    C103,53.3,102.5,52.8,101.9,52.8z" style="fill: #06B0C1;"/><path class="st6" d="M55.9,48.4H19.6c-0.6,0-1.1,0.5-1.1,1.1v20.4c0,0.6,0.5,1.1,1.1,1.1h36.4c0.6,0,1.1-0.5,1.1-1.1V49.4    C57,48.8,56.5,48.4,55.9,48.4z" style="fill: #06B0C1;"/><path class="st6" d="M101.9,81.3H76.6c-0.6,0-1.1,0.5-1.1,1.1v13.9c0,0.6,0.5,1.1,1.1,1.1h25.3c0.6,0,1.1-0.5,1.1-1.1V82.4    C103,81.8,102.5,81.3,101.9,81.3z" style="fill: #06B0C1;"/><rect class="st27" height="2.4" width="10.7" x="83.9" y="100.8" style="fill: #B8BABC;"/><rect class="st1" height="1.7" width="13.7" x="82.4" y="103.2" style="fill: #F5F6F7;"/><circle class="st0" cx="89.2" cy="99" r="0.5" style="fill: #F5876E;"/></g></g>
	<metadata>
		<rdf:RDF xmlns:rdf="http://www.w3.org/1999/02/22-rdf-syntax-ns#" xmlns:rdfs="http://www.w3.org/2000/01/rdf-schema#" xmlns:dc="http://purl.org/dc/elements/1.1/">
			<rdf:Description about="https://admin.iconscout.com/legal#licenses" dc:title="873085,computer server,data processing,global internet,global network,server network" dc:description="873085,computer server,data processing,global internet,global network,server network" dc:publisher="Iconscout" dc:date="2017-05-04" dc:format="image/svg+xml" dc:language="en">
				<dc:creator>
					<rdf:Bag>
						<rdf:li>Vectors Market</rdf:li>
					</rdf:Bag>
				</dc:creator>
			</rdf:Description>
		</rdf:RDF>
    </metadata></svg>
