<?xml version="1.0" encoding="UTF-8"?><!DOCTYPE svg PUBLIC "-//W3C//DTD SVG 1.1//EN" "http://www.w3.org/Graphics/SVG/1.1/DTD/svg11.dtd"><svg xmlns="http://www.w3.org/2000/svg" xmlns:xlink="http://www.w3.org/1999/xlink" version="1.1" id="Layer_1" x="0px" y="0px" viewBox="0 0 48 48" xml:space="preserve"><circle fill="#54BB6C" cx="24" cy="24" r="24"/><path fill="#EDEDED" d="M29.385 41.864H13.054a2.765 2.765 0 0 1-2.762-2.762 2.766 2.766 0 0 1 2.762-2.763h1.521a1.26 1.26 0 0 0 1.259-1.258 1.26 1.26 0 0 0-1.259-1.259h-3.95a1.044 1.044 0 0 1-1.042-1.042v-2.25h.5v2.25c0 .299.243.542.542.542h3.95c.97 0 1.759.789 1.759 1.759s-.789 1.758-1.759 1.758h-1.521a2.264 2.264 0 0 0-2.262 2.263 2.265 2.265 0 0 0 2.262 2.262h16.332a.656.656 0 0 0 .656-.656v-4.497a.89.89 0 0 1 .888-.888h3.087c.49 0 .888.398.888.888v1.01h-.5v-1.01a.388.388 0 0 0-.388-.388H30.93a.388.388 0 0 0-.388.388v4.497c0 .637-.519 1.156-1.157 1.156z"/><path fill="#393A58" d="M28.544 36.59h-9.088a.54.54 0 0 1-.416-.889c1.441-1.634 2.872-4.747 2.872-4.747h4.186s1.431 3.113 2.862 4.747c.3.347.048.889-.416.889z"/><path fill="#282941" d="M27.114 32.934a32.254 32.254 0 0 1-1.016-1.981h-4.186s-.414.898-1.018 1.981h6.22z"/><path fill="#393A58" d="M40.518 9.258v21.405a1.3 1.3 0 0 1-1.305 1.305H8.787c-.715 0-1.305-.58-1.305-1.305V9.258c0-.715.59-1.296 1.305-1.296h30.426a1.299 1.299 0 0 1 1.305 1.296z"/><path fill="#FFF" d="M8.932 9.412h30.135v21.106H8.932z"/><path fill="#6A6576" d="M7.482 28.453v2.211c0 .725.59 1.305 1.305 1.305h30.426a1.3 1.3 0 0 0 1.305-1.305v-2.211H7.482z"/><circle fill="#DE564E" cx="37.538" cy="30.211" r="0.82"/><circle fill="#54BB6C" cx="34.994" cy="30.211" r="0.82"/><circle fill="#FEE29C" cx="32.45" cy="30.211" r="0.82"/><g><path fill="#393A58" d="M35.105 37.937h-.892c0-.51-.077-1.045.446-1.045s.446.534.446 1.045z"/><path fill="#393A58" d="M38.29 41.076v2.2a23.744 23.744 0 0 1-6.54 3.43c-.15.06-.3.11-.45.15-.22-.46-.34-.98-.34-1.53v-4.25c0-.76.24-1.47.64-2.05v1.14a3.024 3.024 0 0 0 2.84 3.03c.06.01.12.01.19.01s.14 0 .21-.01a3.037 3.037 0 0 0 2.82-3.03v-1.14c.4.58.63 1.29.63 2.05z"/><path fill="#F8D270" d="M31.597 40.171v-1.149c1.453-2.144 4.608-2.141 6.059 0v1.149a3.039 3.039 0 0 1-3.03 3.038 3.046 3.046 0 0 1-3.029-3.038z"/><path fill="#282941" d="M36.6 38.006c-.853-.345-1.921-.291-2.39-.09a3.63 3.63 0 0 0-2.61 3.5v4.24c0 .37.05.72.15 1.05-.15.06-.3.11-.45.15-.22-.46-.34-.98-.34-1.53v-4.25c0-.76.24-1.47.64-2.05.59-.87 1.52-1.46 2.61-1.58.115-.029.505-.046.63-.01.09-.01.17 0 .25.01.01 0 .01.01.01.01.02-.01.03-.01.04 0 .03 0 .06 0 .08.01.15.02.29.06.43.1.02 0 .04.01.05.01.275.086.66.259.9.43z" opacity="0.1"/><path fill="#FFF" d="M34.844 37.43v5.77c-.072.008-.145.008-.217.008-.064 0-.129 0-.185-.008v-5.77c.086-.024.31-.02.402 0z"/><ellipse fill="#DE564E" cx="34.641" cy="40.227" rx="0.771" ry="1.205"/></g><g fill="#D9D9D9"><path d="M34.33 12.366v.01c0 .25-.2.45-.45.45H14.12c-.25 0-.45-.2-.45-.45v-.01c0-.25.2-.45.45-.45h19.76c.25 0 .45.2.45.45z"/><path d="M34.33 15.616v.01c0 .25-.2.45-.45.45H14.12c-.25 0-.45-.2-.45-.45v-.01c0-.25.2-.45.45-.45h19.76c.25 0 .45.2.45.45z"/><path d="M34.33 18.866v.01c0 .25-.2.45-.45.45H14.12c-.25 0-.45-.2-.45-.45v-.01c0-.25.2-.45.45-.45h19.76c.25 0 .45.2.45.45z"/><path d="M34.33 22.116v.01c0 .25-.2.45-.45.45H14.12c-.25 0-.45-.2-.45-.45v-.01c0-.25.2-.45.45-.45h19.76c.25 0 .45.2.45.45z"/><path d="M34.33 25.366v.01c0 .25-.2.45-.45.45H14.12c-.25 0-.45-.2-.45-.45v-.01c0-.25.2-.45.45-.45h19.76c.25 0 .45.2.45.45z"/></g><metadata><rdf:RDF xmlns:rdf="http://www.w3.org/1999/02/22-rdf-syntax-ns#" xmlns:rdfs="http://www.w3.org/2000/01/rdf-schema#" xmlns:dc="http://purl.org/dc/elements/1.1/"><rdf:Description about="https://iconscout.com/legal#licenses" dc:publisher="Iconscout" dc:date="2018-04-26" dc:format="image/svg+xml" dc:language="en"><dc:creator><rdf:Bag><rdf:li>Vectors Market</rdf:li></rdf:Bag></dc:creator></rdf:Description></rdf:RDF></metadata></svg>