<?xml version="1.0" encoding="UTF-8"?><svg xmlns="http://www.w3.org/2000/svg" xmlns:xlink="http://www.w3.org/1999/xlink" version="1.1" id="Layer_1" x="0px" y="0px" viewBox="0 0 100 100" xml:space="preserve"><circle fill="#45B39C" cx="50" cy="50" r="48"/><path opacity="0.1" d="M74.98 31.65c-.19-.23-.48-.38-.81-.38H25.83c-.6 0-1.08.49-1.08 1.08V65.3H22.5v2.59h.21l-.03.02 30.019 30.01c23.773-1.318 42.923-19.933 45.088-43.47L75.03 31.7l-.05-.05z"/><path fill="#EBF0F3" d="M22.5 65.304h55v2.59h-55z"/><path fill="#E1E6E9" d="M77.32 67.905H22.68l4.64.822h45.36z"/><path fill="#64798A" d="M74.169 31.273H25.83c-.597 0-1.081.484-1.081 1.081v32.95h50.5v-32.95c0-.597-.484-1.081-1.081-1.081z"/><path fill="#EBF0F3" d="M26.75 33.273h46.5v30.031h-46.5z"/><path fill="#E1E6E9" d="M73.25 33.273v30.031h-46.5"/><circle fill="#3A556A" cx="50.0000496" cy="32.2224464" r="0.4859816"/><path fill="#FFF" d="M28.43 34.634h33.943v2.258H28.431z"/><circle fill="#44C4A1" cx="64.7810745" cy="35.762886" r="1.1479738"/><circle fill="#FCD462" cx="67.6012344" cy="35.762886" r="1.1479738"/><circle fill="#E56353" cx="70.4213867" cy="35.762886" r="1.1479738"/><path fill="#E56353" d="M31.451 49.052v-.896c-1.122-.115-2.13-.56-3.02-1.338l.896-1.068c.687.597 1.395.953 2.124 1.068v-2.382c-.925-.221-1.603-.512-2.032-.872-.43-.36-.645-.894-.645-1.602s.247-1.287.743-1.738c.495-.45 1.14-.695 1.934-.736v-.614h.786v.626c.9.066 1.751.372 2.553.92l-.798 1.13a3.961 3.961 0 0 0-1.755-.712v2.308h.037c.94.222 1.632.52 2.074.896.442.377.663.924.663 1.64 0 .716-.253 1.3-.761 1.75-.508.45-1.178.695-2.013.736v.884h-.786zm-.866-7.925a.878.878 0 0 0-.313.687c0 .275.082.491.246.65.163.16.475.314.933.461v-2.124c-.369.033-.657.141-.866.326zm2.585 5.383a.883.883 0 0 0 .344-.711c0-.287-.09-.514-.27-.682-.181-.168-.517-.325-1.007-.473v2.21c.392-.04.703-.155.933-.344z"/><path fill="#64798A" d="M37.341 39.739H71.57v.75H37.34z"/><path fill="#64798A" d="M37.341 42.375H71.57v.75H37.34z"/><g><path fill="#64798A" d="M37.341 45.012H71.57v.75H37.34z"/></g><g><path fill="#64798A" d="M37.341 47.649H71.57v.75H37.34z"/></g><g><path fill="#64798A" d="M28.431 50.285H71.57v.75H28.43z"/></g><g><path fill="#64798A" d="M28.431 52.922H71.57v.75H28.43z"/></g><g><path fill="#64798A" d="M28.431 55.559H71.57v.75H28.43z"/></g><g><path fill="#64798A" d="M28.431 58.196H71.57v.75H28.43z"/></g><g><path fill="#64798A" d="M28.431 60.832H71.57v.75H28.43z"/></g><g><path fill="#FCD462" d="M69.12 56.446c1.947-1.652 3.15-3.882 3.15-6.344 0-5.08-5.094-9.2-11.378-9.2s-11.378 4.12-11.378 9.2 5.094 9.201 11.378 9.201c1.67 0 3.251-.298 4.68-.82 1.759 1.32 3.61 1.768 5.53 2.686 0 0-.942-1.99-1.982-4.723z"/><path fill="#2F4859" d="M64.899 50.266h-8.014v-3.594c0-2.21 1.798-4.007 4.007-4.007s4.007 1.797 4.007 4.007v3.594zM58 49.151h5.783v-2.48c0-1.594-1.297-2.89-2.892-2.89s-2.891 1.296-2.891 2.89v2.48z"/><path fill="#E56353" d="M65.627 48.625h-9.47a.545.545 0 0 0-.545.545v6.373c0 .3.244.545.545.545h9.47a.545.545 0 0 0 .545-.545V49.17a.545.545 0 0 0-.545-.545z"/><path fill="#CE412D" d="M61.693 51.749a.8.8 0 0 0-1.601 0c0 .252.119.474.301.621l-.301 1.394h1.6l-.301-1.394a.796.796 0 0 0 .302-.621z"/></g><metadata><rdf:RDF xmlns:rdf="http://www.w3.org/1999/02/22-rdf-syntax-ns#" xmlns:rdfs="http://www.w3.org/2000/01/rdf-schema#" xmlns:dc="http://purl.org/dc/elements/1.1/"><rdf:Description about="https://iconscout.com/legal#licenses" dc:title="money,security,finance,cash,laptop" dc:description="money,security,finance,cash,laptop" dc:publisher="Iconscout" dc:date="2017-09-17" dc:format="image/svg+xml" dc:language="en"><dc:creator><rdf:Bag><rdf:li>Dinosoft Labs</rdf:li></rdf:Bag></dc:creator></rdf:Description></rdf:RDF></metadata></svg>