<?xml version="1.0" encoding="UTF-8"?>
<svg xmlns="http://www.w3.org/2000/svg" xmlns:xlink="http://www.w3.org/1999/xlink" enable-background="new 0 0 128 128" id="Layer_1" version="1.1" viewBox="0 0 128 128" xml:space="preserve"><g><g><circle cx="64" cy="64" fill="#01B0C1" r="63.5"/></g><g><g><rect fill="#474F5A" height="61.8" width="61.9" x="33" y="33"/></g><g><path d="M97.1,51.5H30.9c-1.3,0-2.3-1.1-2.3-2.3V33.8c0-1.3,1.1-2.3,2.3-2.3h66.2c1.3,0,2.3,1.1,2.3,2.3v15.3     C99.4,50.4,98.4,51.5,97.1,51.5z" fill="#EFF2F4"/></g><g><circle cx="87" cy="41.5" fill="#FF876C" r="3"/></g><g><path d="M97.1,74H30.9c-1.3,0-2.3-1.1-2.3-2.3V56.3c0-1.3,1.1-2.3,2.3-2.3h66.2c1.3,0,2.3,1.1,2.3,2.3v15.3     C99.4,73,98.4,74,97.1,74z" fill="#EFF2F4"/></g><g><circle cx="87" cy="64.1" fill="#FF876C" r="3"/></g><g><path d="M97.1,96.5H30.9c-1.3,0-2.3-1.1-2.3-2.3V78.8c0-1.3,1.1-2.3,2.3-2.3h66.2c1.3,0,2.3,1.1,2.3,2.3v15.3     C99.4,95.5,98.4,96.5,97.1,96.5z" fill="#EFF2F4"/></g><g><circle cx="87" cy="86.8" fill="#FF876C" r="3"/></g><g><g><g><path d="M35.9,35.9c-0.5,0-0.9,0.4-0.9,0.9v9.4c0,0.5,0.4,0.9,0.9,0.9c0.5,0,0.9-0.4,0.9-0.9v-9.4       C36.8,36.3,36.4,35.9,35.9,35.9z" fill="#474F5A"/></g><g><path d="M41,35.9c-0.5,0-0.9,0.4-0.9,0.9v9.4c0,0.5,0.4,0.9,0.9,0.9c0.5,0,0.9-0.4,0.9-0.9v-9.4       C41.9,36.3,41.5,35.9,41,35.9z" fill="#474F5A"/></g><g><path d="M46.1,35.9c-0.5,0-0.9,0.4-0.9,0.9v9.4c0,0.5,0.4,0.9,0.9,0.9c0.5,0,0.9-0.4,0.9-0.9v-9.4       C47,36.3,46.6,35.9,46.1,35.9z" fill="#474F5A"/></g><g><path d="M51.3,35.9c-0.5,0-0.9,0.4-0.9,0.9v9.4c0,0.5,0.4,0.9,0.9,0.9c0.5,0,0.9-0.4,0.9-0.9v-9.4       C52.2,36.3,51.8,35.9,51.3,35.9z" fill="#474F5A"/></g><g><path d="M56.4,35.9c-0.5,0-0.9,0.4-0.9,0.9v9.4c0,0.5,0.4,0.9,0.9,0.9c0.5,0,0.9-0.4,0.9-0.9v-9.4       C57.3,36.3,56.9,35.9,56.4,35.9z" fill="#474F5A"/></g><g><path d="M61.5,35.9c-0.5,0-0.9,0.4-0.9,0.9v9.4c0,0.5,0.4,0.9,0.9,0.9c0.5,0,0.9-0.4,0.9-0.9v-9.4       C62.4,36.3,62,35.9,61.5,35.9z" fill="#474F5A"/></g><g><path d="M66.7,35.9c-0.5,0-0.9,0.4-0.9,0.9v9.4c0,0.5,0.4,0.9,0.9,0.9c0.5,0,0.9-0.4,0.9-0.9v-9.4       C67.6,36.3,67.2,35.9,66.7,35.9z" fill="#474F5A"/></g></g><g><g><path d="M35.9,58.4c-0.5,0-0.9,0.4-0.9,0.9v9.4c0,0.5,0.4,0.9,0.9,0.9c0.5,0,0.9-0.4,0.9-0.9v-9.4       C36.8,58.8,36.4,58.4,35.9,58.4z" fill="#474F5A"/></g><g><path d="M41,58.4c-0.5,0-0.9,0.4-0.9,0.9v9.4c0,0.5,0.4,0.9,0.9,0.9c0.5,0,0.9-0.4,0.9-0.9v-9.4       C41.9,58.8,41.5,58.4,41,58.4z" fill="#474F5A"/></g><g><path d="M46.1,58.4c-0.5,0-0.9,0.4-0.9,0.9v9.4c0,0.5,0.4,0.9,0.9,0.9c0.5,0,0.9-0.4,0.9-0.9v-9.4       C47,58.8,46.6,58.4,46.1,58.4z" fill="#474F5A"/></g><g><path d="M51.3,58.4c-0.5,0-0.9,0.4-0.9,0.9v9.4c0,0.5,0.4,0.9,0.9,0.9c0.5,0,0.9-0.4,0.9-0.9v-9.4       C52.2,58.8,51.8,58.4,51.3,58.4z" fill="#474F5A"/></g><g><path d="M56.4,58.4c-0.5,0-0.9,0.4-0.9,0.9v9.4c0,0.5,0.4,0.9,0.9,0.9c0.5,0,0.9-0.4,0.9-0.9v-9.4       C57.3,58.8,56.9,58.4,56.4,58.4z" fill="#474F5A"/></g><g><path d="M61.5,58.4c-0.5,0-0.9,0.4-0.9,0.9v9.4c0,0.5,0.4,0.9,0.9,0.9c0.5,0,0.9-0.4,0.9-0.9v-9.4       C62.4,58.8,62,58.4,61.5,58.4z" fill="#474F5A"/></g><g><path d="M66.7,58.4c-0.5,0-0.9,0.4-0.9,0.9v9.4c0,0.5,0.4,0.9,0.9,0.9c0.5,0,0.9-0.4,0.9-0.9v-9.4       C67.6,58.8,67.2,58.4,66.7,58.4z" fill="#474F5A"/></g></g><g><g><path d="M35.9,81c-0.5,0-0.9,0.4-0.9,0.9v9.4c0,0.5,0.4,0.9,0.9,0.9c0.5,0,0.9-0.4,0.9-0.9v-9.4       C36.8,81.3,36.4,81,35.9,81z" fill="#474F5A"/></g><g><path d="M41,81c-0.5,0-0.9,0.4-0.9,0.9v9.4c0,0.5,0.4,0.9,0.9,0.9c0.5,0,0.9-0.4,0.9-0.9v-9.4       C41.9,81.3,41.5,81,41,81z" fill="#474F5A"/></g><g><path d="M46.1,81c-0.5,0-0.9,0.4-0.9,0.9v9.4c0,0.5,0.4,0.9,0.9,0.9c0.5,0,0.9-0.4,0.9-0.9v-9.4       C47,81.3,46.6,81,46.1,81z" fill="#474F5A"/></g><g><path d="M51.3,81c-0.5,0-0.9,0.4-0.9,0.9v9.4c0,0.5,0.4,0.9,0.9,0.9c0.5,0,0.9-0.4,0.9-0.9v-9.4       C52.2,81.3,51.8,81,51.3,81z" fill="#474F5A"/></g><g><path d="M56.4,81c-0.5,0-0.9,0.4-0.9,0.9v9.4c0,0.5,0.4,0.9,0.9,0.9c0.5,0,0.9-0.4,0.9-0.9v-9.4       C57.3,81.3,56.9,81,56.4,81z" fill="#474F5A"/></g><g><path d="M61.5,81c-0.5,0-0.9,0.4-0.9,0.9v9.4c0,0.5,0.4,0.9,0.9,0.9c0.5,0,0.9-0.4,0.9-0.9v-9.4       C62.4,81.3,62,81,61.5,81z" fill="#474F5A"/></g><g><path d="M66.7,81c-0.5,0-0.9,0.4-0.9,0.9v9.4c0,0.5,0.4,0.9,0.9,0.9c0.5,0,0.9-0.4,0.9-0.9v-9.4       C67.6,81.3,67.2,81,66.7,81z" fill="#474F5A"/></g></g></g></g></g>
	<metadata>
		<rdf:RDF xmlns:rdf="http://www.w3.org/1999/02/22-rdf-syntax-ns#" xmlns:rdfs="http://www.w3.org/2000/01/rdf-schema#" xmlns:dc="http://purl.org/dc/elements/1.1/">
			<rdf:Description about="https://admin.iconscout.com/legal#licenses" dc:title="876186,database sharing,information access,server hosting,server rack,shared info" dc:description="876186,database sharing,information access,server hosting,server rack,shared info" dc:publisher="Iconscout" dc:date="2017-05-04" dc:format="image/svg+xml" dc:language="en">
				<dc:creator>
					<rdf:Bag>
						<rdf:li>Vectors Market</rdf:li>
					</rdf:Bag>
				</dc:creator>
			</rdf:Description>
		</rdf:RDF>
    </metadata></svg>
