<svg xmlns="http://www.w3.org/2000/svg" id="Layer_1" enable-background="new 0 0 66 66" viewBox="0 0 66 66"><circle cx="33" cy="33" r="32" fill="#ff735a"/><path fill="#fff" d="M46.51,35.13H19.49V23.76c0-7.45,6.06-13.51,13.51-13.51s13.51,6.06,13.51,13.51V35.13z M23.76,30.87h18.49
				v-7.11c0-5.1-4.15-9.24-9.24-9.24s-9.24,4.15-9.24,9.24V30.87z"/><path fill="#ffd663" d="M15.93,30.16v21.5c10.72,5.46,23.41,5.46,34.13,0v-21.5H15.93z"/><path fill="#395263" d="M35.84,40.82c0-1.57-1.27-2.84-2.84-2.84c-1.57,0-2.84,1.27-2.84,2.84c0,1,0.52,1.88,1.3,2.38l-0.59,4.73
			h4.27l-0.59-4.73C35.32,42.7,35.84,41.82,35.84,40.82z"/></svg>