<svg xmlns="http://www.w3.org/2000/svg" enable-background="new 0 0 130 130" viewBox="0 0 130 130"><circle cx="65" cy="65" r="64" fill="#DDDCE0"/><path fill="#C9C8CE" d="M76.23271 9.839c0 .55517-.45006 1.00522-1.00522 1.00522h-6.32155c-.55278 0-1.00515-.45233-1.00515-1.0052s.45237-1.00524 1.00515-1.00524h6.32155C75.78265 8.83378 76.23271 9.28383 76.23271 9.839L76.23271 9.839zM79.10063 9.839L79.10063 9.839c0-.55517.45005-1.00522 1.00522-1.00522h2.65654c.55517 0 1.00522.45005 1.00522 1.00522v0c0 .55517-.45005 1.00522-1.00522 1.00522h-2.65654C79.55068 10.84422 79.10063 10.39417 79.10063 9.839zM29.70211 19.70662c.55518 0 1.00513-.45001 1.00513-1.00519s-.44995-1.00525-1.00513-1.00525h-7.8103c-.71777.65454-1.42139 1.32428-2.10864 2.01044H29.70211zM38.7993 18.70151c0 .55517-.45005 1.00522-1.00523 1.00522l-4.1234 0c-.55278 0-1.00516-.45233-1.00516-1.0052 0-.55287.45238-1.00524 1.00516-1.00524l4.1234 0C38.34924 17.69629 38.7993 18.14634 38.7993 18.70151L38.7993 18.70151zM11.96871 88.97243H5.66012c.27344.67627.55884 1.34583.85449 2.01044h5.4541c.55518 0 1.00513-.45001 1.00513-1.00519C12.97384 89.42244 12.52389 88.97243 11.96871 88.97243zM16.48834 90.98283h-.94628c-.55517 0-1.00522-.45005-1.00522-1.00522l0 0c0-.55517.45005-1.00522 1.00522-1.00522h.94628c.55513 0 1.00515.45007 1.00515 1.0052v.00005C17.49349 90.53277 17.04347 90.98283 16.48834 90.98283zM46.17661 28.60582c0-.55517.45005-1.00522 1.00521-1.00522l16.00727 0c.55296 0 1.00515.45237 1.00515 1.00524s-.45219 1.0052-1.00515 1.0052l-16.00727.00001C46.62666 29.61104 46.17661 29.16099 46.17661 28.60582L46.17661 28.60582zM42.62685 106.75597c0-.55517.45005-1.00522 1.00521-1.00522l1.61373-.00001c.55296 0 1.00515.45238 1.00515 1.00524 0 .55287-.45219 1.0052-1.00515 1.0052l-1.61373.00001C43.0769 107.76119 42.62685 107.31114 42.62685 106.75597L42.62685 106.75597zM41.06552 106.75597L41.06552 106.75597c0 .55517-.45005 1.00522-1.00522 1.00522h-4.80804c-.55517 0-1.00522-.45005-1.00522-1.00522l0 0c0-.55517.45005-1.00522 1.00522-1.00522h4.80804C40.61546 105.75076 41.06552 106.20081 41.06552 106.75597zM128.84502 69.34759c-.04004.68018-.09985 1.3501-.15991 2.00977h-9.88012c-.55981 0-1.01001-.44971-1.01001-1 0-.56006.4502-1.00977 1.01001-1.00977H128.84502zM116.23539 70.35604L116.23539 70.35604c0 .55517-.45005 1.00522-1.00522 1.00522h-4.80804c-.55516 0-1.00522-.45005-1.00522-1.00522l0 0c0-.55517.45006-1.00522 1.00522-1.00522h4.80804C115.78534 69.35082 116.23539 69.80087 116.23539 70.35604zM79.76952 115.0621h12.75005c.55516 0 1.00525.45006 1.00529 1.00522v.00001c.00005.55516-.44997 1.00522-1.00513 1.00522l-12.75005-.00001c-.55296 0-1.00518-.45237-1.00523-1.00524S79.21657 115.0621 79.76952 115.0621zM69.34073 115.0621h4.96407c.55516 0 1.00525.45006 1.00529 1.00522v.00001c.00005.55516-.44997 1.00522-1.00513 1.00522l-4.96407-.00001c-.55296 0-1.00519-.45237-1.00523-1.00524C68.33562 115.51443 68.78777 115.0621 69.34073 115.0621zM96.13741 116.06733c-.00005-.55517.44997-1.00522 1.00513-1.00522h1.08029c.55514 0 1.00519.45006 1.00523 1.0052.00005.55518-.44994 1.00524-1.00507 1.00524h-1.0803C96.58755 117.07255 96.13746 116.6225 96.13741 116.06733L96.13741 116.06733zM31.61417 46.80621H18.86413c-.55516 0-1.00525.45005-1.00529 1.00522l0 0c-.00005.55517.44997 1.00522 1.00513 1.00522h12.75004c.55296 0 1.00518-.45237 1.00523-1.00524S32.16713 46.80621 31.61417 46.80621zM15.24628 47.81143c.00004-.55517-.44997-1.00522-1.00513-1.00522h-1.08029c-.55513 0-1.00518.45006-1.00523 1.0052-.00004.55518.44993 1.00524 1.00507 1.00524h1.08029C14.79615 48.81665 15.24624 48.3666 15.24628 47.81143L15.24628 47.81143zM115.59596 27.6006l-12.75005 0c-.55516 0-1.00525.45005-1.00529 1.00522v0c-.00005.55517.44997 1.00522 1.00513 1.00522h12.75004c.55296 0 1.00519-.45237 1.00523-1.00524C116.60107 28.05293 116.14892 27.6006 115.59596 27.6006zM99.22807 28.60582c.00005-.55517-.44997-1.00522-1.00513-1.00522h-1.0803c-.55513 0-1.00518.45006-1.00523 1.0052-.00005.55518.44994 1.00524 1.00507 1.00524h1.0803C98.77794 29.61104 99.22803 29.16099 99.22807 28.60582L99.22807 28.60582z"/><g><path fill="#C9C8CE" d="M106.92064,40.2151v47.87774H26.34375V40.2151c0-1.64459,1.33648-2.98079,2.98107-2.98079h74.61504
			C105.58444,37.23431,106.92064,38.57051,106.92064,40.2151z"/><path fill="#C9C8CE" d="M109.25062,88.09283c0,4.38586-3.56329,7.94914-7.94914,7.94914H31.97462
			c-4.39729,0-7.94914-3.56329-7.94914-7.94914H109.25062z"/></g><g><path fill="#386384" d="M105.28259,38.57705v47.87774H24.7057V38.57705c0-1.64459,1.33647-2.98079,2.98107-2.98079h74.61504
			C103.9464,35.59626,105.28259,36.93246,105.28259,38.57705z"/><path fill="#2F4867" d="M105.28259,38.57705v47.87774H24.7057l43.6954-3.1543c17.97728-1.29775,32.18241-15.76547,33.1507-33.7635
			l0.75001-13.94073C103.9464,35.59626,105.28259,36.93246,105.28259,38.57705z"/><rect width="69.73" height="40.008" x="30.131" y="41.021" fill="#FFF"/><path fill="#F34B50" d="M52.28658 61.04657l4.95238 3.33131c.14623.10254.2996.23362.46011.39412.1605.16139.24075.35133.24075.56979v1.86272c0 .13197-.04459.24164-.13197.32903s-.19617.13108-.32814.13108c-.03032 0-.06242-.00268-.09808-.0107-.03745-.00713-.0856-.02496-.14267-.05439l-7.67022-5.17174c-.20509-.13197-.36202-.25948-.47081-.38342-.11057-.12394-.16407-.30317-.16407-.53768v-.92022c0-.23362.0535-.41195.16407-.53679.10878-.12394.26572-.25145.47081-.38342l7.67022-5.17173c.05707-.02853.10522-.04726.14267-.05439.03566-.00713.06776-.01159.09808-.01159.13197 0 .24075.04458.32814.13197.08738.08738.13197.19706.13197.32903v1.86271c0 .21846-.08025.40839-.24075.56889-.1605.16139-.31387.29247-.46011.39501L52.28658 61.04657zM67.16513 52.1503c.07311-.16139.18369-.3103.32992-.44941.14445-.1391.35667-.20865.63487-.20865h1.62107c.13197 0 .24432.04815.34062.14267.09452.09541.14267.20776.14267.33973 0 .05885-.01605.12394-.04459.19706l-7.40628 17.72835c-.05885.14623-.16228.29247-.30674.43871-.14623.14534-.36559.21846-.65806.21846h-1.55508c-.13197 0-.24611-.04726-.34062-.14178-.09452-.09541-.14267-.20865-.14267-.33973 0-.05885.01427-.12483.04458-.19706L67.16513 52.1503zM72.75239 57.71615c-.14624-.10254-.29961-.23362-.46011-.39501-.16051-.1605-.24075-.35043-.24075-.56889v-1.86271c0-.13197.04458-.24165.13197-.32903.08739-.08739.19617-.13197.32814-.13197.02853 0 .06242.00446.09808.01159.03745.00713.08382.02586.14267.05439l7.67021 5.17173c.20509.13197.36202.25948.47081.38342.11057.12484.16407.30317.16407.53679v.92022c0 .23451-.0535.41374-.16407.53768-.10879.12394-.26572.25145-.47081.38342l-7.67021 5.17174c-.05885.02943-.10522.04726-.14267.05439-.03567.00803-.06956.0107-.09808.0107-.13197 0-.24075-.04369-.32814-.13108s-.13197-.19706-.13197-.32903v-1.86272c0-.21846.08025-.40839.24075-.56979.1605-.1605.31387-.29158.46011-.39412l4.95238-3.33131L72.75239 57.71615z"/><path fill="#4A749B" d="M107.61256,86.45479c0,4.38586-3.56328,7.94914-7.94913,7.94914H30.33657
			c-4.39729,0-7.94914-3.56329-7.94914-7.94914H107.61256z"/><path fill="#386384" d="M107.61256,86.45479c0,4.38586-3.56328,7.94914-7.94913,7.94914H30.33657
			c-2.58121,0-4.87689-1.23331-6.31598-3.14085c1.32476,1.01665,2.99222,1.62201,4.79687,1.62201h69.32686
			c3.86052,0,7.09282-2.76413,7.8008-6.43031H107.61256z"/><path fill="#2F4867" d="M74.81457,86.45479c0,1.30404-1.05946,2.36349-2.36349,2.36349H57.54893
			c-1.30743,0-2.36349-1.05946-2.36349-2.36349H74.81457z"/><path fill="#6894AF" d="M44.23613 87.63654c0 .29697-.2398.53677-.53676.53677h-9.92499c-.29697 0-.5482-.2398-.5482-.53677 0-.29696.25123-.53676.5482-.53676h9.92499C43.99633 87.09978 44.23613 87.33958 44.23613 87.63654zM31.3758 87.63654c0 .29697-.2398.53677-.5482.53677h-4.99094c-.29696 0-.53704-.2398-.53704-.53677 0-.29696.24008-.53676.53704-.53676h4.99094C31.136 87.09978 31.3758 87.33958 31.3758 87.63654zM26.37341 65.97356c-.29696 0-.53676-.2398-.53676-.53677v-9.92499c0-.29696.2398-.5482.53676-.5482.29696 0 .53677.25124.53677.5482v9.92499C26.91017 65.73376 26.67037 65.97356 26.37341 65.97356zM26.37341 53.11324c-.29696 0-.53676-.2398-.53676-.5482V47.5741c0-.29696.2398-.53704.53676-.53704.29696 0 .53677.24008.53677.53704v4.99094C26.91017 52.87344 26.67037 53.11324 26.37341 53.11324zM51.35355 37.4804c0 .29697-.2398.53677-.53676.53677h-9.92499c-.29696 0-.54819-.2398-.54819-.53677 0-.29696.25123-.53676.54819-.53676h9.92499C51.11375 36.94364 51.35355 37.18344 51.35355 37.4804zM38.49322 37.4804c0 .29697-.2398.53677-.54819.53677h-4.99094c-.29696 0-.53704-.2398-.53704-.53677 0-.29696.24008-.53676.53704-.53676h4.99094C38.25342 36.94364 38.49322 37.18344 38.49322 37.4804z"/></g></svg>