<svg xmlns="http://www.w3.org/2000/svg" enable-background="new 0 0 130 130" viewBox="0 0 130 130"><circle cx="65" cy="65" r="64" fill="#DDDCE0"/><path fill="#C9C8CE" d="M66.37898 118.6429c-.45847 0-.91324-.00553-1.36617-.01752-.78225-.02029-1.4003-.67109-1.37908-1.45335.01937-.78271.68816-1.42152 1.45288-1.37954.42895.01106.85789.0166 1.28868.0166l.54979-.00323c.00462 0 .00923 0 .01384 0 .77672 0 1.40953.62497 1.41691 1.40307.00738.78225-.62082 1.4229-1.40307 1.43074L66.37898 118.6429zM74.45701 118.0041c-.68355 0-1.28591-.49629-1.39753-1.19367-.12361-.77257.40311-1.49901 1.17614-1.62262 3.01923-.48199 6.00617-1.24994 8.87688-2.28217.73981-.26244 1.5479.11761 1.81264.8542.26475.73612-.11716 1.5479-.85329 1.81264-3.03675 1.09174-6.1962 1.90397-9.38977 2.41409C74.60645 117.99856 74.53173 118.0041 74.45701 118.0041zM57.54269 117.8791c-.08118 0-.16328-.00738-.2463-.02168-9.61393-1.68349-18.55077-6.03615-25.84378-12.58796-.58208-.52304-.63004-1.41875-.10701-2.00082.52304-.58162 1.41691-.63051 2.00175-.10701 6.89635 6.1962 15.34705 10.3127 24.43795 11.90441.77026.13515 1.28592.86942 1.15124 1.64014C58.81569 117.39435 58.21793 117.8791 57.54269 117.8791zM90.47931 112.58185c-.50367 0-.99165-.26982-1.2481-.7449-.37175-.68908-.11438-1.54836.5747-1.91965 8.13891-4.38725 14.87475-10.94874 19.4797-18.97419.3902-.67939 1.25547-.91139 1.93349-.52396.67893.38974.91324 1.25548.52396 1.93441-4.86692 8.48391-11.98836 15.41993-20.59219 20.05808C90.93685 112.52695 90.70624 112.58185 90.47931 112.58185zM27.17329 100.1876c-.40773 0-.81269-.1748-1.09312-.51381-2.05986-2.49065-3.89742-5.18472-5.46099-8.00746-.37913-.68446-.13099-1.54651.55348-1.92564s1.54605-.13237 1.92611.55302c1.47871 2.66962 3.21663 5.21793 5.1658 7.5739.49813.60284.41419 1.49624-.1891 1.99483C27.81164 100.08105 27.49154 100.1876 27.17329 100.1876zM113.7734 86.25423c-.17065 0-.34408-.0309-.51289-.0964-.72967-.28365-1.09128-1.10465-.80807-1.83386.22139-.57101.43448-1.14754.6365-1.72916.25645-.73936 1.05991-1.13094 1.80342-.87357.73889.25644 1.13002 1.06406.87357 1.80341-.21309.61391-.43725 1.22273-.67155 1.8251C114.87666 85.91061 114.34071 86.25423 113.7734 86.25423zM18.70783 85.54485c-.5747 0-1.11526-.35238-1.32743-.92246-.226-.60514-.44002-1.21581-.64388-1.8311-.2463-.74258.15682-1.54466.8994-1.7905.7389-.24722 1.54328.1559 1.7905.89941.19279.58208.39574 1.15954.60883 1.73239.27397.73336-.09963 1.54928-.83299 1.82279C19.03992 85.51579 18.87203 85.54485 18.70783 85.54485zM116.36368 77.18179c-.08671 0-.17342-.0083-.26105-.02444-.76934-.14345-1.2767-.88326-1.13371-1.6526.55717-2.9911.84037-6.0629.84037-9.12964 0-2.57183-.19926-5.15289-.5913-7.67122-.11992-.77349.40865-1.49762 1.1826-1.618.76656-.11854 1.49715.40819 1.618 1.18168.41418 2.66224.6245 5.38996.6245 8.10755 0 3.24062-.29887 6.48677-.88834 9.64898C117.62746 76.70579 117.03246 77.18179 116.36368 77.18179zM16.25407 76.4392c-.67709 0-1.27669-.48706-1.39477-1.17753-.49998-2.9173-.75273-5.90701-.75181-8.88703 0-6.81148 1.29053-13.43755 3.83561-19.69417.29611-.72367 1.11895-1.07467 1.84678-.77856.72506.29519 1.07283 1.12172.77856 1.84678-2.40671 5.91531-3.62713 12.18208-3.62713 18.62642-.00092 2.81998.238 5.64871.71122 8.40781.13191.77118-.38559 1.50362-1.15769 1.63599C16.41458 76.43274 16.3334 76.4392 16.25407 76.4392zM114.90527 52.55289c-.60329 0-1.16231-.3879-1.35234-.9935-2.76001-8.8017-7.93781-16.64957-14.97253-22.69449-.59315-.51012-.66141-1.40445-.15128-1.99806.51104-.59315 1.40491-.66141 1.99805-.15128 7.43691 6.39038 12.91083 14.68795 15.83043 23.99609.23338.74673-.18173 1.5419-.928 1.77575C115.18846 52.53167 115.04548 52.55289 114.90527 52.55289zM22.61447 41.86843c-.2463 0-.49536-.06365-.72229-.19833-.67248-.39943-.89479-1.26885-.49536-1.94179 1.64752-2.77523 3.56441-5.41395 5.69807-7.84234.51658-.58807 1.41137-.64573 1.9999-.12914.58761.51658.64573 1.41183.12914 1.9999-2.01835 2.29694-3.83192 4.79267-5.38996 7.418C23.56922 41.62075 23.09784 41.86843 22.61447 41.86843zM33.54753 28.95208c-.40312 0-.80254-.17066-1.08297-.50228-.50551-.5973-.43079-1.49117.16697-1.99668.49444-.41788.99626-.82653 1.50546-1.22549.61621-.48245 1.50639-.37406 1.98883.24215.48245.61621.37452 1.50685-.24168 1.9893-.48153.37683-.95568.76334-1.42244 1.15815C34.1951 28.8423 33.87039 28.95208 33.54753 28.95208zM93.42843 24.72304c-.25829 0-.51842-.07011-.75273-.21724-.51842-.32563-1.04331-.64296-1.57465-.95014-.67709-.39205-.90863-1.2587-.5175-1.93579.39389-.67755 1.26285-.90678 1.93625-.51704.56086.32471 1.11526.65956 1.66321 1.00318.66233.41649.8625 1.29099.44647 1.95378C94.36012 24.48827 93.89889 24.72304 93.42843 24.72304zM41.27594 23.55519c-.4926 0-.97136-.25783-1.23241-.71722-.38744-.68032-.14944-1.54513.53134-1.9321 7.82343-4.44766 16.74459-6.79857 25.80042-6.79857.71584 0 1.42706.0143 2.13644.04243.78133.03136 1.39015.69093 1.35879 1.47272-.03044.78225-.67893 1.38278-1.47318 1.35925-.67063-.02721-1.34496-.04059-2.02205-.04059-8.56509 0-17.00287 2.22314-24.40012 6.42866C41.7547 23.49524 41.51394 23.55519 41.27594 23.55519zM85.01001 20.46217c-.17342 0-.34869-.03183-.51935-.09916-2.84119-1.11849-5.80322-1.97546-8.80309-2.54693-.76933-.14667-1.27392-.88833-1.12725-1.65721.14575-.76933.89111-1.27346 1.65675-1.12679 3.17328.60468 6.30598 1.511 9.31229 2.69452.72783.28643 1.08575 1.10926.79886 1.83709C86.10867 20.12178 85.57456 20.46217 85.01001 20.46217zM87.81792 47.04552H60.91928l15.38549 15.38526c.38245.38251.72755.75573 1.03551 1.11962.57858.6624.88631 1.51147.88631 2.43513v1.84733c0 .93301-.30774 1.77274-.88631 2.44447-.30796.35455-.65306.72778-1.03551 1.11028L60.91928 86.77293h26.89864c.97971 0 1.86601.37317 2.56577 1.07292.7091.69975 1.07287 1.59546 1.07287 2.5751v4.34779c0 .97036-.36377 1.86601-1.07287 2.56577-.69975.69975-1.58606 1.07298-2.56577 1.07298H46.00986c-.97947 0-1.86601-.37323-2.5751-1.07298-.69976-.69975-1.07287-1.58607-1.07287-2.56577v-4.34779c0-.82104.18656-1.5581.55967-2.17392.27995-.4665.65329-.93301 1.11045-1.39017l20.01293-19.94767L44.03201 46.96152c-.45716-.44783-.83051-.91433-1.11045-1.38083-.36377-.6251-.55967-1.35287-.55967-2.17392v-4.34778c0-.97964.37311-1.86601 1.07287-2.57511.70909-.69975 1.59563-1.07298 2.5751-1.07298h41.80805c.97971 0 1.86601.37323 2.56577 1.07298.7091.7091 1.07287 1.59546 1.07287 2.57511v4.34778c0 .97964-.37311 1.86601-1.07287 2.56577C89.68393 46.67229 88.79762 47.04552 87.81792 47.04552z"/><path fill="#FFF" d="M65.04294,117.30686c-0.45847,0-0.91324-0.00554-1.36617-0.01753
			c-0.78225-0.02029-1.4003-0.67109-1.37909-1.45334c0.01937-0.78271,0.68816-1.42152,1.45288-1.37955
			c0.42894,0.01107,0.85789,0.0166,1.28868,0.0166l0.54979-0.00323c0.00461,0,0.00922,0,0.01383,0
			c0.77672,0,1.40953,0.62497,1.41691,1.40307c0.00738,0.78225-0.62082,1.4229-1.40307,1.43074L65.04294,117.30686z
			 M73.12096,116.66805c-0.68354,0-1.28591-0.49628-1.39753-1.19367c-0.12361-0.77256,0.40311-1.49901,1.17614-1.62261
			c3.01923-0.48199,6.00617-1.24995,8.87688-2.28218c0.73981-0.26244,1.5479,0.11761,1.81264,0.8542
			c0.26475,0.73613-0.11716,1.5479-0.85328,1.81264c-3.03676,1.09174-6.1962,1.90397-9.38978,2.41409
			C73.27041,116.66251,73.19569,116.66805,73.12096,116.66805z M56.20665,116.54306c-0.08118,0-0.16328-0.00739-0.2463-0.02168
			c-9.61393-1.68349-18.55077-6.03615-25.84378-12.58796c-0.58208-0.52303-0.63004-1.41875-0.10701-2.00082
			c0.52304-0.58161,1.41691-0.63051,2.00175-0.10701c6.89635,6.19621,15.34705,10.3127,24.43795,11.90442
			c0.77026,0.13514,1.28592,0.86942,1.15123,1.64014C57.47965,116.0583,56.88189,116.54306,56.20665,116.54306z M89.14326,111.2458
			c-0.50367,0-0.99165-0.26982-1.24809-0.7449c-0.37176-0.68908-0.11439-1.54836,0.57469-1.91965
			c8.13891-4.38725,14.87475-10.94874,19.4797-18.97418c0.39021-0.6794,1.25548-0.9114,1.93349-0.52396
			c0.67893,0.38974,0.91324,1.25548,0.52396,1.93441c-4.86692,8.48391-11.98835,15.41993-20.59219,20.05808
			C89.60081,111.19092,89.37019,111.2458,89.14326,111.2458z M25.83725,98.85156c-0.40773,0-0.81269-0.17481-1.09312-0.51382
			c-2.05987-2.49065-3.89742-5.18472-5.46099-8.00745c-0.37913-0.68447-0.13099-1.54652,0.55348-1.92565
			c0.68447-0.37913,1.54605-0.13237,1.92611,0.55302c1.47871,2.66962,3.21664,5.21793,5.16581,7.57391
			c0.49813,0.60283,0.41419,1.49624-0.18911,1.99483C26.4756,98.74502,26.1555,98.85156,25.83725,98.85156z M112.43736,84.91818
			c-0.17065,0-0.34408-0.0309-0.51289-0.0964c-0.72967-0.28365-1.09127-1.10465-0.80807-1.83385
			c0.22139-0.57101,0.43448-1.14755,0.6365-1.72916c0.25645-0.73936,1.05991-1.13094,1.80342-0.87357
			c0.73889,0.25645,1.13002,1.06406,0.87357,1.80342c-0.21309,0.6139-0.43725,1.22272-0.67155,1.8251
			C113.54063,84.57457,113.00467,84.91818,112.43736,84.91818z M17.37179,84.20881c-0.5747,0-1.11526-0.35238-1.32743-0.92246
			c-0.226-0.60514-0.44002-1.21581-0.64388-1.83109c-0.2463-0.74258,0.15682-1.54467,0.8994-1.7905
			c0.73889-0.24722,1.54328,0.15589,1.7905,0.8994c0.19279,0.58208,0.39574,1.15954,0.60883,1.73239
			c0.27397,0.73336-0.09963,1.54928-0.83299,1.82279C17.70387,84.17975,17.53599,84.20881,17.37179,84.20881z M115.02763,75.84574
			c-0.08671,0-0.17342-0.0083-0.26105-0.02444c-0.76933-0.14345-1.2767-0.88326-1.13371-1.6526
			c0.55717-2.9911,0.84037-6.0629,0.84037-9.12964c0-2.57183-0.19926-5.15289-0.5913-7.67122
			c-0.11992-0.77349,0.40865-1.49762,1.1826-1.618c0.76656-0.11853,1.49716,0.40819,1.618,1.18168
			c0.41418,2.66224,0.6245,5.38997,0.6245,8.10755c0,3.24062-0.29887,6.48677-0.88833,9.64899
			C116.29141,75.36975,115.69643,75.84574,115.02763,75.84574z M14.91803,75.10316c-0.67709,0-1.27669-0.48706-1.39477-1.17753
			c-0.49998-2.9173-0.75273-5.90701-0.75181-8.88703c0-6.81148,1.29053-13.43755,3.83561-19.69417
			c0.29611-0.72367,1.11895-1.07467,1.84678-0.77856c0.72506,0.29519,1.07283,1.12172,0.77856,1.84678
			c-2.40671,5.91531-3.62713,12.18208-3.62713,18.62642c-0.00092,2.81998,0.238,5.64871,0.71122,8.40781
			c0.13191,0.77118-0.38559,1.50362-1.15769,1.63599C15.07854,75.0967,14.99736,75.10316,14.91803,75.10316z M113.56922,51.21684
			c-0.60329,0-1.16231-0.38789-1.35233-0.99349c-2.76002-8.8017-7.93781-16.64957-14.97253-22.69449
			c-0.59315-0.51012-0.66141-1.40445-0.15128-1.99806c0.51105-0.59315,1.40491-0.66141,1.99805-0.15128
			c7.43692,6.39038,12.91083,14.68795,15.83043,23.99608c0.23338,0.74673-0.18172,1.5419-0.928,1.77575
			C113.85242,51.19563,113.70943,51.21684,113.56922,51.21684z M21.27843,40.53239c-0.2463,0-0.49536-0.06365-0.72229-0.19833
			c-0.67248-0.39943-0.89479-1.26885-0.49537-1.94179c1.64752-2.77524,3.56441-5.41395,5.69807-7.84234
			c0.51658-0.58807,1.41137-0.64573,1.9999-0.12914c0.58761,0.51658,0.64573,1.41183,0.12914,1.9999
			c-2.01835,2.29694-3.83192,4.79267-5.38996,7.41801C22.23318,40.28471,21.7618,40.53239,21.27843,40.53239z M32.21148,27.61603
			c-0.40312,0-0.80254-0.17065-1.08297-0.50228c-0.50551-0.5973-0.43079-1.49117,0.16697-1.99668
			c0.49444-0.41788,0.99626-0.82653,1.50546-1.2255c0.61621-0.48245,1.50639-0.37406,1.98883,0.24215
			c0.48245,0.61621,0.37452,1.50685-0.24168,1.9893c-0.48153,0.37683-0.95567,0.76334-1.42244,1.15816
			C32.85905,27.50626,32.53435,27.61603,32.21148,27.61603z M92.09238,23.38699c-0.25829,0-0.51842-0.07011-0.75273-0.21724
			c-0.51842-0.32563-1.0433-0.64296-1.57465-0.95014c-0.67709-0.39205-0.90863-1.25871-0.5175-1.93579
			c0.39389-0.67755,1.26286-0.90678,1.93625-0.51704c0.56086,0.32471,1.11526,0.65956,1.66321,1.00318
			c0.66233,0.41649,0.8625,1.29099,0.44647,1.95378C93.02408,23.15223,92.56284,23.38699,92.09238,23.38699z M39.9399,22.21915
			c-0.4926,0-0.97136-0.25783-1.23241-0.71722c-0.38743-0.68032-0.14944-1.54513,0.53134-1.9321
			c7.82343-4.44767,16.74459-6.79857,25.80043-6.79857c0.71583,0,1.42705,0.0143,2.13643,0.04243
			c0.78133,0.03136,1.39015,0.69093,1.35879,1.47272c-0.03044,0.78225-0.67893,1.38278-1.47318,1.35925
			c-0.67063-0.02721-1.34496-0.04059-2.02204-0.04059c-8.56509,0-17.00288,2.22314-24.40013,6.42866
			C40.41866,22.15919,40.17789,22.21915,39.9399,22.21915z M83.67397,19.12613c-0.17342,0-0.34869-0.03183-0.51935-0.09916
			c-2.84119-1.11849-5.80322-1.97546-8.80308-2.54693c-0.76934-0.14667-1.27393-0.88833-1.12726-1.65721
			c0.14575-0.76934,0.89111-1.27346,1.65675-1.12679c3.17328,0.60468,6.30597,1.511,9.31228,2.69452
			c0.72783,0.28642,1.08575,1.10926,0.79886,1.83709C84.77262,18.78574,84.23852,19.12613,83.67397,19.12613z"/><path fill="#F34B50" d="M85.94788,45.17547H59.04924l15.38549,15.38526c0.38245,0.38251,0.72754,0.75573,1.03551,1.11962
				c0.57858,0.6624,0.88631,1.51146,0.88631,2.43513v1.84733c0,0.93301-0.30773,1.77274-0.88631,2.44447
				c-0.30797,0.35455-0.65306,0.72778-1.03551,1.11028L59.04924,84.90289h26.89864c0.9797,0,1.86601,0.37317,2.56577,1.07292
				c0.70909,0.69975,1.07287,1.59546,1.07287,2.5751v4.34779c0,0.97036-0.36378,1.86601-1.07287,2.56577
				c-0.69975,0.69975-1.58607,1.07298-2.56577,1.07298H44.13982c-0.97948,0-1.86601-0.37322-2.57511-1.07298
				c-0.69975-0.69975-1.07286-1.58607-1.07286-2.56577v-4.34779c0-0.82105,0.18655-1.55811,0.55967-2.17392
				c0.27995-0.4665,0.65329-0.93301,1.11045-1.39017L62.1749,65.03915L42.16197,45.09148
				c-0.45716-0.44782-0.8305-0.91433-1.11045-1.38083c-0.36377-0.6251-0.55967-1.35287-0.55967-2.17392v-4.34779
				c0-0.97964,0.37311-1.86601,1.07286-2.5751c0.7091-0.69976,1.59563-1.07298,2.57511-1.07298h41.80805
				c0.9797,0,1.86601,0.37322,2.56577,1.07298c0.70909,0.7091,1.07287,1.59546,1.07287,2.5751v4.34779
				c0,0.97964-0.37312,1.86601-1.07287,2.56577C87.81389,44.80225,86.92757,45.17547,85.94788,45.17547z"/><path fill="#E53946" d="M73.4717 63.0814v-1.85139c0-.92575-.31179-1.77586-.88787-2.4371-.30234-.35896-.65173-.73682-1.0297-1.11462l2.88109 2.88103c.37775.38732.72736.75567 1.03915 1.12408.57608.66124.87842 1.51134.87842 2.42764v1.85145c0 .93515-.30234 1.7758-.87842 2.44649-.31179.3495-.66141.72736-1.03915 1.10517L59.04924 84.90289h-5.76218l18.26707-18.26976c.37798-.38726.72736-.75568 1.0297-1.11462C73.15991 64.84781 73.4717 64.00716 73.4717 63.0814zM89.58671 37.18982v4.34516c0 .98243-.37798 1.87035-1.07698 2.56936-.699.699-1.58687 1.06741-2.55984 1.06741H59.04758l-2.88109-2.88103h26.89286c.98243 0 1.8703-.37786 2.56953-1.07686.69877-.699 1.07675-1.58693 1.07675-2.5599v-4.35461c0-.23615-.01891-.4723-.06619-.68954.70846.1322 1.34127.4723 1.8703 1.00128C89.21819 35.31953 89.58671 36.20745 89.58671 37.18982zM88.50973 85.97866c.70846.699 1.07698 1.59632 1.07698 2.5693v4.35461c0 .96352-.36852 1.8609-1.07698 2.5599-.699.699-1.58687 1.07687-2.55984 1.07687h-41.8082c-.98243 0-1.8703-.37787-2.57875-1.07687-.52903-.52898-.86897-1.1713-1.00134-1.87975.21747.04722.45362.06613.68977.06613h41.80796c.98243 0 1.8703-.36841 2.56953-1.06741.70846-.699 1.07675-1.59638 1.07675-2.56936v-4.34515c0-.23615-.01891-.47231-.06619-.699C87.34789 85.10013 87.9807 85.44962 88.50973 85.97866z"/><path fill="#FF6C77" d="M69.34367 34.94166c0 .31173-.24538.55734-.55717.55734H54.10732c-.31179 0-.56686-.24561-.56686-.55734 0-.31174.25506-.56674.56686-.56674H68.7865C69.0983 34.37492 69.34367 34.62992 69.34367 34.94166zM51.71744 34.94166c0 .31173-.25506.55734-.56662.55734h-5.19532c-.31179 0-.56686-.24561-.56686-.55734 0-.31174.25506-.56674.56686-.56674h5.19532C51.46238 34.37492 51.71744 34.62992 51.71744 34.94166zM69.34367 87.66946c0 .31174-.24538.55734-.55717.55734H54.10732c-.31179 0-.56686-.24561-.56686-.55734s.25506-.56674.56686-.56674H68.7865C69.0983 87.10272 69.34367 87.35773 69.34367 87.66946zM51.71744 87.66946c0 .31174-.25506.55734-.56662.55734h-5.19532c-.31179 0-.56686-.24561-.56686-.55734s.25506-.56674.56686-.56674h5.19532C51.46238 87.10272 51.71744 87.35773 51.71744 87.66946z"/></svg>