<svg xmlns="http://www.w3.org/2000/svg" enable-background="new 0 0 512 512" viewBox="0 0 512 512"><circle cx="256" cy="256" r="252" fill="#FD8469"/><rect width="128.1" height="28.8" x="188.2" y="384.7" fill="#F1543F"/><path fill="#E6E9EE" d="M316.3,372.7c0-23.9,5.6-47.3,16-68.4c8.7-17.5,17.7-39.9,17.7-57.3c0-70.3-57-126.3-124.5-118.5
			C168.2,135.1,126,189,126,250.4v0c0,12.7-12.8,24.9-21.3,33.9l-5.1,5.5c-2.4,2.6-0.7,7,2.7,7H126v18.3l11.5,4.2l-11.5,4.2v8.8
			c0,9.3,7,16.8,15.7,16.8h30.7c8.7,0,15.7,7.5,15.7,16.8v18.8h128.1V372.7z"/><path fill="#324A5E" d="M327.8,98.5c-47.3,0-85.7,31.5-85.7,70.3c0,19.6,9.8,37.3,25.5,50.1l-9.7,40l54.3-20.9
			c5.1,0.8,10.3,1.2,15.6,1.2c47.3,0,85.7-31.5,85.7-70.3C413.5,130,375.1,98.5,327.8,98.5z"/><path fill="#FFF" d="M253 169.8V164l18.1-9.7v6.2l-12 6.3 12 6.4v6.3L253 169.8zM293.2 154h5.8v29.6h-5.8V172h-10.4v11.6H277V154h5.8v12.4h10.4V154zM316.5 159.8v23.9h-5.8v-23.9h-7.4V154h20.6v5.7H316.5zM351.5 165l-7 16.2H341l-7-16.2v18.6h-5.8V154h7.9l6.7 16.3 6.8-16.3h7.8v29.6h-5.8V165zM363.7 183.6V154h5.8v23.7h11.1v5.9H363.7zM402.6 164v5.8l-18.1 9.7v-6.3l12-6.4-12-6.3v-6.2L402.6 164z"/></svg>